<svg width="60" height="60" viewBox="0 0 60 60" fill="none" xmlns="http://www.w3.org/2000/svg">
<path fill-rule="evenodd" clip-rule="evenodd" d="M2.61598 56.4947C2.41946 56.4947 2.23099 56.4166 2.09203 56.2776C1.95307 56.1387 1.875 55.9502 1.875 55.7537C1.875 55.5572 1.95307 55.3687 2.09203 55.2297C2.23099 55.0908 2.41946 55.0127 2.61598 55.0127H57.384C57.5805 55.0127 57.769 55.0908 57.908 55.2297C58.0469 55.3687 58.125 55.5572 58.125 55.7537C58.125 55.9502 58.0469 56.1387 57.908 56.2776C57.769 56.4166 57.5805 56.4947 57.384 56.4947H2.61598ZM7.20902 30.7576V31.2263C7.21001 31.3775 7.27051 31.5223 7.37744 31.6292C7.48436 31.7361 7.6291 31.7966 7.78031 31.7976H12.6838C12.835 31.7966 12.9797 31.7361 13.0867 31.6292C13.1936 31.5223 13.2541 31.3775 13.2551 31.2263V30.7576H7.20902ZM6.6157 29.1873C6.67941 29.2002 6.74112 29.2214 6.79922 29.2506C6.87126 29.267 6.94493 29.2753 7.01883 29.2752H13.4055C13.6252 29.2786 13.8386 29.2013 14.0052 29.0581L14.0066 29.0597C14.0684 29.0075 14.1186 28.9429 14.1537 28.87C14.1888 28.7971 14.2081 28.7176 14.2104 28.6367C14.2104 28.2399 14.2088 28.1298 14.2071 28.0266C14.1837 26.4522 14.1666 25.3313 15.5138 23.8266C15.9698 23.3207 16.3319 22.7373 16.5827 22.104C16.8233 21.4912 16.9466 20.8386 16.946 20.1802C16.946 17.3902 15.2179 15.5969 13.0097 14.8088C11.1958 14.1749 9.22087 14.173 7.40578 14.8034C5.22117 15.5823 3.51715 17.3581 3.51715 20.1368C3.51657 20.7951 3.6398 21.4476 3.88043 22.0604C4.13117 22.6938 4.4932 23.2772 4.94941 23.7831C6.25711 25.2433 6.23848 26.485 6.21609 28.0449C6.21469 28.1415 6.21316 28.24 6.21316 28.6368C6.21546 28.7179 6.23487 28.7975 6.27014 28.8704C6.30541 28.9434 6.35572 29.0081 6.41777 29.0602L6.41918 29.0587C6.47818 29.1109 6.54436 29.1543 6.6157 29.1876V29.1873ZM11.9586 33.279H8.50547C8.59494 33.4267 8.70713 33.5595 8.83793 33.6723C9.23163 33.9933 9.72406 34.1686 10.2321 34.1686C10.74 34.1686 11.2325 33.9933 11.6262 33.6723C11.7569 33.5594 11.8691 33.4267 11.9586 33.279ZM47.2617 53.5309H52.8619V18.0798H47.2617V53.5309ZM33.8876 53.5309H39.4877V31.5419H33.887V53.5309H33.8876ZM20.5134 53.5309H26.1137V38.2547H20.5129V53.5309H20.5134ZM7.1393 53.5309H12.7395V40.9657H7.13871V53.5309H7.1393ZM51.79 6.49063L23.8125 28.6122C23.6582 28.7234 23.4669 28.7708 23.2786 28.7444C23.0902 28.718 22.9193 28.62 22.8014 28.4707C22.6836 28.3214 22.6279 28.1324 22.646 27.9431C22.664 27.7538 22.7545 27.5787 22.8984 27.4544L50.8436 5.35801L47.3286 4.9754C47.2313 4.9662 47.1367 4.93777 47.0504 4.89177C46.9641 4.84577 46.8878 4.78311 46.8259 4.7074C46.7639 4.6317 46.7177 4.54447 46.6897 4.45075C46.6617 4.35704 46.6526 4.25871 46.6629 4.16146C46.6732 4.06421 46.7027 3.96996 46.7497 3.88419C46.7967 3.79842 46.8602 3.72281 46.9366 3.66176C47.013 3.60071 47.1008 3.55542 47.1948 3.52852C47.2888 3.50162 47.3872 3.49364 47.4844 3.50504L52.793 4.08301C52.9879 4.10373 53.1667 4.20106 53.2899 4.35357C53.4132 4.50609 53.4707 4.70131 53.45 4.89629L52.8721 10.2049C52.8624 10.3019 52.8337 10.3961 52.7875 10.4819C52.7413 10.5678 52.6785 10.6437 52.6029 10.7052C52.5272 10.7668 52.4402 10.8127 52.3467 10.8404C52.2532 10.8682 52.1552 10.8772 52.0582 10.8668C51.9612 10.8565 51.8673 10.8271 51.7817 10.7804C51.6962 10.7336 51.6207 10.6704 51.5597 10.5943C51.4987 10.5183 51.4533 10.4309 51.4262 10.3372C51.3991 10.2436 51.3908 10.1454 51.4017 10.0486L51.79 6.49063Z" fill="#6639BD"/>
</svg>
