<svg width="175" height="70" viewBox="0 0 175 70" fill="none" xmlns="http://www.w3.org/2000/svg">
<path d="M31.9238 67.5684L23.5739 53.1055L22.8564 51.8621L30.7807 36.8824L27.7268 31.1094C25.3417 36.6665 23.0342 42.3985 20.8088 48.3144C20.6248 48.8054 20.4394 49.2948 20.2555 49.7873C17.8582 56.2321 15.5583 62.8974 13.3633 69.8043L22.1845 53.1298L22.902 54.3732L31.9238 69.9989L40.7207 54.7623L40.0488 53.4931L31.9223 67.5669L31.9238 67.5684Z" fill="white"/>
<path d="M37.5606 16.5987H39.0138C38.801 16.9514 38.5699 17.2949 38.3206 17.6278C37.1471 19.1934 35.0083 19.6737 33.2769 18.7587C33.0535 19.2329 32.8315 19.7087 32.6096 20.186C33.7026 22.5465 34.7788 24.9284 35.8337 27.3331L41.5129 16.6002L41.5402 16.5486C41.7591 16.1336 42.0175 15.746 42.3064 15.3842C43.4586 13.9478 45.1231 12.9765 46.9822 12.7774C48.8413 12.5783 50.5697 11.49 51.5091 9.71308C53.0779 6.74905 51.8283 3.04327 48.7045 1.66462C46.0884 0.509408 42.9707 1.46245 41.4475 3.88231C40.6358 5.17128 40.3941 6.63505 40.6358 8.00002C41.0827 10.5217 40.7224 13.0951 39.6599 15.3827H25.1094C25.3298 15.8022 25.5791 16.2066 25.8527 16.5987H37.5591H37.5606ZM42.2775 4.82928C43.4723 2.57054 46.2723 1.7087 48.5312 2.90343C50.7901 4.09815 51.652 6.89801 50.4572 9.15675C49.2806 11.379 46.552 12.2485 44.3129 11.1373C44.2764 11.1191 44.2399 11.1024 44.2035 11.0826C44.0286 10.9899 43.863 10.8865 43.7049 10.7756C41.8245 9.45619 41.1754 6.91321 42.2775 4.82928Z" fill="white"/>
<path d="M44.114 48.8792L63.4573 15.3767H43.9726C43.5743 15.7278 43.2201 16.1367 42.9191 16.5927H61.3505L43.5576 47.4079L42.7747 48.7637C40.2377 41.9981 37.5927 35.4758 34.8504 29.1768C33.8152 26.798 32.7648 24.4511 31.7023 22.1346C31.1824 21.0007 30.658 19.8728 30.132 18.7526C28.4021 19.6676 26.2633 19.1888 25.0883 17.6217C24.839 17.2888 24.6079 16.9453 24.3951 16.5927C24.1564 16.1975 23.9406 15.7916 23.7475 15.3767C22.685 13.089 22.3247 10.5157 22.7716 7.99395C22.9814 6.80986 22.8263 5.55281 22.2533 4.39913C22.1651 4.22128 22.0724 4.04345 21.9599 3.87472C20.0826 1.05054 17.1031 1.10374 15.4143 1.48678C14.6695 1.6555 13.8836 1.56886 13.2162 1.19798C11.4331 0.206933 9.42507 -0.115308 6.78769 0.035173V0.378697C8.14666 0.536778 9.43875 0.880299 10.5196 1.34542C11.7691 1.88199 12.3042 3.34424 11.7432 4.58305C11.0273 6.16538 11.0242 8.05019 11.8998 9.70549C12.3878 10.6281 13.0901 11.3638 13.9109 11.8867C14.671 12.3716 15.5329 12.6741 16.4267 12.7698C18.2858 12.969 19.9503 13.9387 21.1026 15.3767H0.378906L19.4623 48.4293C19.6463 47.9383 19.8302 47.4459 20.0157 46.9564L2.48425 16.5927H21.896L28.5541 29.1768L31.7023 35.1277L40.7606 52.2506L41.4325 53.5198L50.0485 69.8052C47.9066 63.0594 45.6614 56.5477 43.3235 50.2427L44.1109 48.8777L44.114 48.8792ZM19.7071 10.768C19.549 10.8789 19.3833 10.9823 19.2085 11.075C19.172 11.0948 19.1355 11.1115 19.099 11.1297C17.7051 11.8213 16.1227 11.7453 14.8412 11.0537C13.9504 10.5734 13.2056 9.79365 12.7739 8.76764C11.8968 6.68523 12.6903 4.22889 14.6162 3.04632C16.9162 1.63422 19.8925 2.47327 21.1345 4.82169C21.2059 4.95697 21.2698 5.09377 21.3275 5.23361C22.1469 7.23091 21.4659 9.53372 19.7086 10.768H19.7071ZM31.5731 30.2636C30.8282 30.2636 30.2232 29.6587 30.2232 28.9139C30.2232 28.1691 30.8282 27.5641 31.5731 27.5641C32.3179 27.5641 32.9229 28.1691 32.9229 28.9139C32.9229 29.6587 32.3179 30.2636 31.5731 30.2636Z" fill="white"/>
<g filter="url(#filter0_d_264_11)">
<path d="M79.7233 37.1867C77.4647 37.1867 75.5973 36.6621 74.1212 35.6128C72.6629 34.5457 71.8714 32.9896 71.7469 30.9444H78.0427C78.1316 32.0292 78.6118 32.5717 79.4832 32.5717C79.8033 32.5717 80.0701 32.5005 80.2835 32.3582C80.5147 32.1982 80.6303 31.9581 80.6303 31.638C80.6303 31.1934 80.3902 30.8377 79.91 30.5709C79.4299 30.2863 78.6829 29.9662 77.6692 29.6105C76.4598 29.1837 75.455 28.7658 74.6547 28.3567C73.8722 27.9477 73.1964 27.3519 72.6273 26.5694C72.0582 25.7869 71.7825 24.782 71.8003 23.5549C71.8003 22.3278 72.1115 21.2874 72.734 20.4337C73.3742 19.5623 74.2368 18.9043 75.3216 18.4596C76.4243 18.015 77.6603 17.7927 79.0297 17.7927C81.3417 17.7927 83.1735 18.3263 84.5251 19.3933C85.8945 20.4604 86.6148 21.9632 86.6859 23.9017H80.3102C80.2924 23.3682 80.159 22.9858 79.91 22.7546C79.6611 22.5234 79.3587 22.4078 79.003 22.4078C78.754 22.4078 78.5495 22.4967 78.3895 22.6746C78.2294 22.8346 78.1494 23.0658 78.1494 23.3682C78.1494 23.795 78.3806 24.1507 78.843 24.4352C79.3232 24.702 80.079 25.031 81.1105 25.4223C82.3021 25.8669 83.2802 26.2937 84.0449 26.7028C84.8275 27.1118 85.5033 27.6809 86.0724 28.4101C86.6415 29.1392 86.926 30.0551 86.926 31.1578C86.926 32.3138 86.6415 33.3542 86.0724 34.279C85.5033 35.186 84.6763 35.8974 83.5914 36.4131C82.5066 36.9289 81.2172 37.1867 79.7233 37.1867ZM103.786 34.1456H97.49L96.5563 37H90.3407L97.2499 18.1128H104.079L110.962 37H104.719L103.786 34.1456ZM102.345 29.6906L100.638 24.4352L98.9306 29.6906H102.345ZM120.897 32.5183H126.606V37H114.975V18.1128H120.897V32.5183ZM140.341 37.1867C138.562 37.1867 136.926 36.7688 135.432 35.9329C133.956 35.0971 132.782 33.9411 131.911 32.4649C131.04 30.9888 130.604 29.326 130.604 27.4764C130.604 25.6268 131.04 23.964 131.911 22.4878C132.782 21.0117 133.956 19.8646 135.432 19.0465C136.926 18.2107 138.562 17.7927 140.341 17.7927C142.119 17.7927 143.747 18.2107 145.223 19.0465C146.699 19.8646 147.864 21.0117 148.717 22.4878C149.589 23.964 150.025 25.6268 150.025 27.4764C150.025 29.326 149.589 30.9888 148.717 32.4649C147.864 33.9411 146.69 35.0971 145.196 35.9329C143.72 36.7688 142.102 37.1867 140.341 37.1867ZM140.341 31.6646C141.515 31.6646 142.422 31.2912 143.062 30.5442C143.702 29.7795 144.022 28.7569 144.022 27.4764C144.022 26.1781 143.702 25.1555 143.062 24.4086C142.422 23.6438 141.515 23.2615 140.341 23.2615C139.149 23.2615 138.233 23.6438 137.593 24.4086C136.953 25.1555 136.633 26.1781 136.633 27.4764C136.633 28.7569 136.953 29.7795 137.593 30.5442C138.233 31.2912 139.149 31.6646 140.341 31.6646ZM172.942 37H167.02L160.751 27.5031V37H154.829V18.1128H160.751L167.02 27.7698V18.1128H172.942V37Z" fill="white"/>
</g>
<path d="M87.8263 53.1705C87.8263 53.7129 87.7018 54.2109 87.4528 54.6644C87.2038 55.109 86.8215 55.4691 86.3057 55.7448C85.79 56.0204 85.1497 56.1583 84.385 56.1583H82.9711V59.5195H80.6903V50.156H84.385C85.1319 50.156 85.7633 50.2849 86.279 50.5428C86.7948 50.8007 87.1816 51.1564 87.4395 51.6099C87.6974 52.0634 87.8263 52.5836 87.8263 53.1705ZM84.2116 54.3442C84.6473 54.3442 84.9719 54.242 85.1853 54.0375C85.3987 53.8329 85.5054 53.5439 85.5054 53.1705C85.5054 52.797 85.3987 52.508 85.1853 52.3035C84.9719 52.0989 84.6473 51.9967 84.2116 51.9967H82.9711V54.3442H84.2116ZM96.4565 59.5195L94.5091 55.9849H93.9623V59.5195H91.6814V50.156H95.5095C96.2476 50.156 96.8745 50.2849 97.3902 50.5428C97.9149 50.8007 98.3061 51.1564 98.564 51.6099C98.8219 52.0545 98.9508 52.5524 98.9508 53.1038C98.9508 53.7262 98.773 54.282 98.4173 54.7711C98.0705 55.2601 97.5547 55.6069 96.87 55.8115L99.0309 59.5195H96.4565ZM93.9623 54.3709H95.3761C95.7941 54.3709 96.1053 54.2687 96.3098 54.0641C96.5232 53.8596 96.6299 53.5706 96.6299 53.1971C96.6299 52.8414 96.5232 52.5613 96.3098 52.3568C96.1053 52.1523 95.7941 52.05 95.3761 52.05H93.9623V54.3709ZM107.479 59.6129C106.598 59.6129 105.789 59.4084 105.051 58.9993C104.322 58.5903 103.739 58.0212 103.304 57.292C102.877 56.554 102.663 55.727 102.663 54.8111C102.663 53.8952 102.877 53.0726 103.304 52.3435C103.739 51.6143 104.322 51.0452 105.051 50.6362C105.789 50.2271 106.598 50.0226 107.479 50.0226C108.359 50.0226 109.164 50.2271 109.893 50.6362C110.631 51.0452 111.209 51.6143 111.627 52.3435C112.054 53.0726 112.267 53.8952 112.267 54.8111C112.267 55.727 112.054 56.554 111.627 57.292C111.2 58.0212 110.622 58.5903 109.893 58.9993C109.164 59.4084 108.359 59.6129 107.479 59.6129ZM107.479 57.5321C108.226 57.5321 108.821 57.2831 109.266 56.7852C109.719 56.2872 109.946 55.6292 109.946 54.8111C109.946 53.9841 109.719 53.3261 109.266 52.837C108.821 52.339 108.226 52.0901 107.479 52.0901C106.723 52.0901 106.118 52.3346 105.665 52.8237C105.22 53.3127 104.998 53.9752 104.998 54.8111C104.998 55.6381 105.22 56.3005 105.665 56.7985C106.118 57.2876 106.723 57.5321 107.479 57.5321ZM125.086 59.6129C124.401 59.6129 123.788 59.5017 123.245 59.2794C122.703 59.0571 122.267 58.7281 121.938 58.2924C121.618 57.8567 121.449 57.332 121.431 56.7185H123.859C123.894 57.0653 124.014 57.332 124.219 57.5188C124.423 57.6966 124.69 57.7855 125.019 57.7855C125.357 57.7855 125.624 57.71 125.82 57.5588C126.015 57.3987 126.113 57.1809 126.113 56.9052C126.113 56.674 126.033 56.4828 125.873 56.3317C125.722 56.1805 125.531 56.056 125.299 55.9582C125.077 55.8604 124.757 55.7492 124.339 55.6247C123.734 55.438 123.241 55.2512 122.858 55.0645C122.476 54.8778 122.147 54.6021 121.871 54.2375C121.596 53.8729 121.458 53.3972 121.458 52.8103C121.458 51.9389 121.774 51.2586 122.405 50.7696C123.036 50.2716 123.859 50.0226 124.873 50.0226C125.904 50.0226 126.735 50.2716 127.367 50.7696C127.998 51.2586 128.336 51.9433 128.381 52.8237H125.913C125.895 52.5213 125.784 52.2857 125.579 52.1167C125.375 51.9389 125.113 51.85 124.792 51.85C124.517 51.85 124.295 51.9255 124.126 52.0767C123.957 52.219 123.872 52.428 123.872 52.7036C123.872 53.006 124.014 53.2416 124.299 53.4106C124.584 53.5795 125.028 53.7618 125.633 53.9574C126.237 54.1619 126.727 54.3576 127.1 54.5443C127.482 54.7311 127.811 55.0023 128.087 55.358C128.363 55.7136 128.501 56.1716 128.501 56.7318C128.501 57.2653 128.363 57.75 128.087 58.1857C127.82 58.6214 127.429 58.9682 126.913 59.2261C126.398 59.484 125.788 59.6129 125.086 59.6129ZM134.813 50.156V55.7581C134.813 56.3183 134.951 56.7496 135.226 57.0519C135.502 57.3543 135.906 57.5054 136.44 57.5054C136.974 57.5054 137.383 57.3543 137.667 57.0519C137.952 56.7496 138.094 56.3183 138.094 55.7581V50.156H140.375V55.7448C140.375 56.5806 140.197 57.2876 139.841 57.8656C139.486 58.4436 139.005 58.8793 138.401 59.1727C137.805 59.4662 137.138 59.6129 136.4 59.6129C135.662 59.6129 134.999 59.4706 134.413 59.1861C133.835 58.8926 133.377 58.4569 133.039 57.8789C132.701 57.292 132.532 56.5806 132.532 55.7448V50.156H134.813ZM146.925 50.156V59.5195H144.644V50.156H146.925ZM157.982 50.156V51.9833H155.501V59.5195H153.22V51.9833H150.739V50.156H157.982ZM164.075 51.9833V53.8774H167.129V55.6381H164.075V57.6922H167.529V59.5195H161.794V50.156H167.529V51.9833H164.075Z" fill="white"/>
<defs>
<filter id="filter0_d_264_11" x="69.9676" y="17.793" width="104.752" height="22.9514" filterUnits="userSpaceOnUse" color-interpolation-filters="sRGB">
<feFlood flood-opacity="0" result="BackgroundImageFix"/>
<feColorMatrix in="SourceAlpha" type="matrix" values="0 0 0 0 0 0 0 0 0 0 0 0 0 0 0 0 0 0 127 0" result="hardAlpha"/>
<feOffset dy="1.77845"/>
<feGaussianBlur stdDeviation="0.889226"/>
<feComposite in2="hardAlpha" operator="out"/>
<feColorMatrix type="matrix" values="0 0 0 0 0 0 0 0 0 0 0 0 0 0 0 0 0 0 0.25 0"/>
<feBlend mode="normal" in2="BackgroundImageFix" result="effect1_dropShadow_264_11"/>
<feBlend mode="normal" in="SourceGraphic" in2="effect1_dropShadow_264_11" result="shape"/>
</filter>
</defs>
</svg>
