<svg width="55" height="60" viewBox="0 0 55 60" fill="none" xmlns="http://www.w3.org/2000/svg">
<path fill-rule="evenodd" clip-rule="evenodd" d="M19.1036 48.9082V49.1174C19.1036 50.3145 20.0831 51.2939 21.28 51.2939H32.922C34.1191 51.2939 35.0983 50.3146 35.0983 49.1174V48.9082H19.1036ZM30.7456 55.6467C31.9425 55.6467 32.9219 54.6676 32.9219 53.4703V53.2612H21.2802V53.4703C21.2802 54.6674 22.2594 55.6467 23.4567 55.6467H30.7456ZM23.5123 57.6144V57.8236C23.5123 59.0206 24.4918 60 25.6888 60H28.5134C29.7105 60 30.6898 59.0207 30.6898 57.8236V57.6144H23.5123ZM3.91928 35.6419C4.1592 35.5462 4.42717 35.5491 4.66499 35.6498C4.9028 35.7506 5.09127 35.9411 5.18945 36.18C5.28763 36.4189 5.2876 36.6869 5.18936 36.9257C5.09112 37.1646 4.90261 37.3551 4.66477 37.4558L1.34378 38.8314C1.10386 38.927 0.835898 38.9242 0.598079 38.8234C0.36026 38.7227 0.171794 38.5322 0.0736124 38.2933C-0.0245687 38.0544 -0.0245363 37.7864 0.0737025 37.5475C0.171941 37.3087 0.360453 37.1182 0.598297 37.0175L3.91928 35.6419ZM49.5373 37.4557C49.2994 37.355 49.1109 37.1645 49.0127 36.9256C48.9144 36.6868 48.9144 36.4188 49.0126 36.1799C49.1108 35.941 49.2992 35.7505 49.537 35.6497C49.7749 35.549 50.0428 35.5461 50.2827 35.6417L53.6037 37.0174C53.8416 37.1181 54.0301 37.3085 54.1283 37.5474C54.2266 37.7863 54.2266 38.0543 54.1284 38.2931C54.0302 38.532 53.8418 38.7226 53.604 38.8233C53.3661 38.9241 53.0982 38.9269 52.8582 38.8313L49.5373 37.4557ZM50.2826 18.5602C50.0427 18.6558 49.7747 18.6529 49.5369 18.5522C49.2991 18.4514 49.1106 18.2609 49.0125 18.022C48.9143 17.7831 48.9143 17.5152 49.0125 17.2763C49.1108 17.0374 49.2993 16.8469 49.5371 16.7462L52.8581 15.3706C53.098 15.275 53.366 15.2778 53.6038 15.3786C53.8416 15.4794 54.0301 15.6699 54.1283 15.9088C54.2265 16.1477 54.2264 16.4156 54.1282 16.6545C54.03 16.8934 53.8415 17.0838 53.6036 17.1845L50.2826 18.5602ZM37.4557 4.66489C37.355 4.90273 37.1645 5.09125 36.9256 5.18949C36.6868 5.28772 36.4188 5.28776 36.1799 5.18958C35.941 5.09139 35.7505 4.90293 35.6497 4.66511C35.549 4.42729 35.5461 4.15932 35.6418 3.91941L37.0174 0.59842C37.1181 0.360576 37.3085 0.172064 37.5474 0.0738254C37.7863 -0.0244134 38.0543 -0.0244457 38.2931 0.0737354C38.532 0.171917 38.7226 0.360383 38.8233 0.598202C38.9241 0.836021 38.9269 1.10399 38.8313 1.3439L37.4557 4.66489ZM18.5602 3.91928C18.6558 4.1592 18.6529 4.42717 18.5522 4.66499C18.4514 4.90281 18.2609 5.09127 18.022 5.18945C17.7831 5.28763 17.5152 5.2876 17.2763 5.18936C17.0374 5.09112 16.8469 4.90261 16.7462 4.66477L15.3706 1.34378C15.275 1.10386 15.2778 0.835898 15.3786 0.598079C15.4794 0.36026 15.6699 0.171794 15.9088 0.0736125C16.1477 -0.0245686 16.4156 -0.0245363 16.6545 0.0737025C16.8934 0.171941 17.0838 0.360453 17.1845 0.598296L18.5602 3.91928ZM4.66477 16.7464C4.90261 16.8471 5.09112 17.0375 5.18936 17.2764C5.2876 17.5153 5.28763 17.7833 5.18945 18.0222C5.09127 18.261 4.9028 18.4516 4.66499 18.5523C4.42717 18.6531 4.1592 18.6559 3.91928 18.5603L0.598297 17.1847C0.360453 17.084 0.171941 16.8935 0.0737025 16.6546C-0.0245363 16.4158 -0.0245687 16.1478 0.0736124 15.9089C0.171794 15.67 0.36026 15.4795 0.598079 15.3787C0.835898 15.278 1.10386 15.2751 1.34378 15.3708L4.66477 16.7464ZM27.101 15.5882C34.4982 15.5882 40.4948 21.5848 40.4948 28.9819C40.4948 36.4206 35.7428 35.976 35.0984 46.9406H19.1036C18.4592 35.976 13.7072 36.4206 13.7072 28.9819C13.7074 21.5848 19.7038 15.5882 27.101 15.5882ZM27.101 20.6196C22.4827 20.6196 18.7388 24.3636 18.7388 28.9818C18.7388 33.6001 22.4827 37.344 27.101 37.344C31.7193 37.344 35.4632 33.6002 35.4632 28.9818C35.4632 24.3636 31.7193 20.6196 27.101 20.6196ZM31.9574 6.75328L30.4017 2.71153H23.8003L22.2445 6.75328C20.0915 7.26619 18.034 8.11917 16.1496 9.28009L12.1889 7.52103L7.5209 12.189L9.27972 16.1492C8.11863 18.0337 7.26556 20.0914 6.75267 22.2447L2.71128 23.8003V30.4018L6.75205 31.9571C7.26494 34.1108 8.11809 36.1689 9.27935 38.0538L7.52078 42.0132L12.1889 46.6811L16.1494 44.9221C16.4313 45.0955 16.7172 45.2623 17.007 45.4223C16.7014 42.5592 16.0164 40.3095 14.4612 37.6256C13.7848 36.4583 13.1156 35.3612 12.6251 34.0953C11.9827 32.4377 11.7396 30.7548 11.7396 28.9821C11.7396 20.4989 18.6177 13.6208 27.1009 13.6208C35.5841 13.6208 42.4622 20.499 42.4622 28.9821C42.4622 30.7548 42.2189 32.4377 41.5767 34.0953C41.0862 35.3614 40.4169 36.4583 39.7406 37.6256C38.1852 40.3099 37.5002 42.5599 37.1947 45.4238C37.485 45.2636 37.7714 45.0965 38.0537 44.9227L42.0131 46.6812L46.681 42.0133L44.9219 38.0527C46.0829 36.1683 46.9359 34.1108 47.4487 31.9577L51.4905 30.4021V23.8006L47.4497 22.2453C46.937 20.0915 46.0838 18.0334 44.9224 16.1486L46.681 12.1892L42.0129 7.52127L38.0523 9.28033C36.168 8.11918 34.1105 7.26611 31.9574 6.75328Z" fill="#6A41BA"/>
<path d="M25.8904 26.8892C28.1796 26.8892 29.8902 25.9843 29.8902 25.1751C29.8902 24.3659 28.1796 23.4609 25.8904 23.4609C23.6012 23.4609 21.8907 24.3659 21.8907 25.1751C21.8907 25.9843 23.6012 26.8892 25.8904 26.8892ZM25.8904 33.7461C26.2245 33.7461 26.5461 33.7267 26.852 33.6913C26.5922 33.3575 26.3799 32.9893 26.2212 32.5972C26.1114 32.6009 26.0013 32.6035 25.8904 32.6035C24.5823 32.6035 23.3435 32.3443 22.4024 31.8737C22.2171 31.781 22.0465 31.6815 21.8907 31.5761V32.032C21.8907 32.8411 23.6012 33.7461 25.8904 33.7461ZM25.8904 31.4605C25.9021 31.4605 25.9137 31.4603 25.9254 31.4603C25.9016 31.2707 25.8897 31.0798 25.8897 30.8887C25.8897 30.6952 25.9019 30.5046 25.9254 30.3174C25.9137 30.3174 25.9021 30.3178 25.8904 30.3178C24.5823 30.3178 23.3436 30.0586 22.4024 29.588C22.2171 29.4954 22.0465 29.3958 21.8906 29.2905V29.7463C21.8907 30.5555 23.6012 31.4605 25.8904 31.4605ZM25.8904 29.1748C26.0038 29.1748 26.1157 29.1725 26.2261 29.1682C26.4023 28.7362 26.6436 28.3336 26.9415 27.9745C26.5925 28.0129 26.2416 28.0322 25.8904 28.0322C24.5823 28.0322 23.3436 27.773 22.4024 27.3024C22.2171 27.2097 22.0465 27.1102 21.8906 27.0048V27.4607C21.8907 28.2699 23.6012 29.1748 25.8904 29.1748ZM27.6049 28.9945C27.3532 29.3724 27.1795 29.7968 27.094 30.2427C27.0532 30.4556 27.0327 30.6719 27.0327 30.8887C27.0327 31.0547 27.0449 31.2179 27.0678 31.3776C27.1229 31.7625 27.2437 32.1351 27.4247 32.4792C27.6107 32.8326 27.8566 33.1511 28.1515 33.4203C28.7614 33.9774 29.5726 34.3176 30.4617 34.3176C32.3524 34.3176 33.8906 32.7794 33.8906 30.8887C33.8906 28.9979 32.3524 27.4597 30.4617 27.4597C30.2663 27.4597 30.0747 27.4764 29.8881 27.508C28.9376 27.6687 28.1189 28.2219 27.6049 28.9945Z" fill="#6A41BA"/>
</svg>
