<svg width="48" height="59" viewBox="0 0 48 59" fill="none" xmlns="http://www.w3.org/2000/svg">
<path d="M15.8652 50.3984C15.8083 50.3984 15.7515 50.3933 15.6955 50.3832C15.5744 50.3611 15.4588 50.3153 15.3554 50.2485C15.252 50.1817 15.1627 50.0952 15.0927 49.9939C15.0227 49.8926 14.9734 49.7785 14.9475 49.6582C14.9216 49.5378 14.9196 49.4135 14.9418 49.2924C16.787 39.1871 12.7387 33.2696 12.6981 33.211C12.5905 33.0575 12.5313 32.8753 12.5283 32.6879C12.5252 32.5005 12.5784 32.3165 12.681 32.1596C13.2812 31.2413 13.7162 28.579 13.738 25.6854C13.7657 22.1065 13.1816 20.3822 12.9109 20.1451C12.5737 19.9147 12.1847 19.7712 11.7787 19.7274C11.3726 19.6835 10.962 19.7407 10.5833 19.8938C10.2949 20.0071 10.0424 20.1961 9.85226 20.4409C9.66216 20.6856 9.54155 20.9771 9.50311 21.2846C9.32077 22.471 8.75616 24.1522 8.10202 26.0986C7.38061 28.2462 6.56288 30.6807 6.1778 32.7516C5.7389 35.2454 5.52819 37.774 5.54827 40.306C5.55404 40.5442 5.4689 40.7757 5.31014 40.9533L1.63678 45.065C1.55477 45.1568 1.45548 45.2316 1.34457 45.285C1.23366 45.3385 1.11331 45.3696 0.990391 45.3765C0.86747 45.3835 0.744385 45.3661 0.628163 45.3255C0.511942 45.2849 0.40486 45.2218 0.313032 45.1397C0.221204 45.0577 0.146429 44.9584 0.0929744 44.8475C0.0395202 44.7366 0.00843448 44.6163 0.00149185 44.4934C-0.00545078 44.3704 0.0118856 44.2473 0.0525115 44.1311C0.0931374 44.0149 0.156257 43.9078 0.238267 43.816L3.66834 39.9755C3.66772 37.4386 3.89053 34.9066 4.3342 32.4087C4.74366 30.2082 5.58366 27.7076 6.32475 25.5017C6.92499 23.7146 7.49194 22.0269 7.65014 20.9994C7.73814 20.3746 7.98864 19.7839 8.37659 19.2863C8.76453 18.7888 9.27632 18.4018 9.86077 18.1641C10.5368 17.8877 11.2714 17.7856 11.9971 17.8671C12.7229 17.9486 13.4165 18.2111 14.0144 18.6305C16.2327 20.2327 15.9339 29.4258 14.5436 32.6283C15.5455 34.3353 18.4837 40.3339 16.7861 49.6306C16.7464 49.846 16.6326 50.0407 16.4644 50.181C16.2962 50.3212 16.0842 50.3981 15.8652 50.3984ZM14.2649 58.8233C14.081 58.8232 13.9013 58.769 13.7479 58.6676C13.5946 58.5661 13.4745 58.4218 13.4026 58.2526C13.3306 58.0834 13.31 57.8967 13.3433 57.7159C13.3767 57.5351 13.4624 57.3681 13.5899 57.2356L16.7875 53.9147C16.8952 53.8027 17.0291 53.7192 17.1772 53.6719C17.3252 53.6246 17.4827 53.6148 17.6355 53.6436C17.6704 53.6501 21.3151 54.2961 24.423 52.7426C27.6601 51.124 29.3148 49.9348 29.9643 47.5538C30.0316 47.3162 30.1899 47.1148 30.4049 46.9933C30.6199 46.8717 30.8741 46.8399 31.1124 46.9048C31.3507 46.9696 31.5537 47.1258 31.6775 47.3395C31.8013 47.5532 31.8357 47.807 31.7734 48.046C30.9458 51.0797 28.8463 52.6261 25.2615 54.4184C22.2932 55.9027 19.0438 55.7086 17.8047 55.5603L14.9401 58.5361C14.8528 58.6271 14.7479 58.6994 14.6319 58.7488C14.5158 58.7981 14.391 58.8234 14.2649 58.8233ZM40.3436 39.9612C40.1003 39.9614 39.8665 39.867 39.6916 39.698C39.5166 39.529 39.4142 39.2986 39.406 39.0555C39.3977 38.8124 39.4843 38.5756 39.6474 38.3951C39.8105 38.2146 40.0374 38.1046 40.2801 38.0883L42.8619 37.9109C43.32 37.8698 43.7432 37.6494 44.0394 37.2976C44.3357 36.9459 44.4808 36.4913 44.4433 36.0329C44.4058 35.5746 44.1887 35.1496 43.8392 34.8507C43.4897 34.5518 43.0363 34.4031 42.5776 34.437L40.9389 34.5666C40.8159 34.5769 40.692 34.5628 40.5745 34.525C40.4569 34.4873 40.348 34.4268 40.2539 34.3468C40.1598 34.2669 40.0824 34.1692 40.0262 34.0592C39.97 33.9493 39.936 33.8294 39.9263 33.7063C39.9166 33.5832 39.9312 33.4595 39.9695 33.3421C40.0077 33.2247 40.0687 33.116 40.1491 33.0223C40.2294 32.9285 40.3275 32.8516 40.4376 32.7958C40.5478 32.7401 40.6679 32.7067 40.791 32.6975L42.4297 32.5679C43.382 32.4999 44.3226 32.811 45.0465 33.4335C45.7703 34.0561 46.2188 34.9395 46.294 35.8912C46.3693 36.843 46.0653 37.7859 45.4483 38.5145C44.8313 39.2431 43.9514 39.6982 43.0002 39.7808L40.4087 39.9589C40.3869 39.9605 40.3651 39.9612 40.3436 39.9612Z" fill="#0EE89A"/>
<path d="M40.3397 34.5673C40.0965 34.5662 39.8633 34.4707 39.6892 34.301C39.5151 34.1312 39.4138 33.9004 39.4067 33.6573C39.3995 33.4143 39.4871 33.1779 39.6509 32.9982C39.8147 32.8185 40.0419 32.7095 40.2846 32.6942L42.4439 32.5645C42.9018 32.5223 43.3245 32.3008 43.6198 31.9484C43.9152 31.5959 44.0592 31.1409 44.0206 30.6827C43.982 30.2245 43.7638 29.8001 43.4136 29.502C43.0635 29.2039 42.6097 29.0563 42.1512 29.0913L40.5124 29.2209C40.2645 29.2406 40.019 29.1609 39.8299 28.9995C39.6407 28.8381 39.5234 28.6081 39.5038 28.3602C39.4842 28.1123 39.5639 27.8668 39.7253 27.6776C39.8867 27.4885 40.1167 27.3712 40.3645 27.3516L42.0035 27.2222C42.96 27.1466 43.9073 27.454 44.6371 28.0769C45.3669 28.6997 45.8194 29.587 45.895 30.5434C45.9706 31.4999 45.6632 32.4472 45.0403 33.177C44.4175 33.9068 43.5302 34.3592 42.5738 34.4349L40.396 34.5659C40.3777 34.5659 40.3587 34.5673 40.3397 34.5673Z" fill="#0EE89A"/>
<path d="M40.4445 29.2264C40.2021 29.2265 39.969 29.1327 39.7943 28.9648C39.6195 28.7968 39.5166 28.5677 39.5071 28.3254C39.4977 28.0832 39.5824 27.8468 39.7435 27.6657C39.9046 27.4846 40.1297 27.3729 40.3713 27.3542L42.0103 27.2248C42.2385 27.2068 42.4608 27.144 42.6647 27.04C42.8685 26.9361 43.0499 26.793 43.1985 26.6189C43.3471 26.4449 43.4599 26.2433 43.5306 26.0256C43.6012 25.808 43.6283 25.5785 43.6103 25.3504C43.5923 25.1222 43.5295 24.8999 43.4255 24.696C43.3216 24.4922 43.1785 24.3108 43.0044 24.1622C42.8304 24.0136 42.6288 23.9008 42.4111 23.8301C42.1934 23.7595 41.964 23.7324 41.7359 23.7504L40.4213 23.8542C40.174 23.8727 39.9295 23.7925 39.7413 23.6312C39.553 23.4698 39.4364 23.2405 39.4168 22.9933C39.3972 22.7461 39.4764 22.5013 39.6369 22.3123C39.7975 22.1234 40.0263 22.0057 40.2734 21.9851L41.588 21.881C42.5445 21.8055 43.4918 22.1129 44.2216 22.7358C44.9514 23.3587 45.4038 24.246 45.4794 25.2025C45.555 26.159 45.2475 27.1063 44.6246 27.8361C44.0018 28.5659 43.1145 29.0183 42.158 29.0939L40.5192 29.2235C40.4942 29.2247 40.4691 29.2264 40.4445 29.2264ZM40.3481 21.773C40.1504 21.7732 39.9577 21.711 39.7975 21.5951C39.6374 21.4792 39.5179 21.3157 39.4563 21.1278C39.3946 20.94 39.3939 20.7374 39.4543 20.5492C39.5147 20.3609 39.633 20.1966 39.7924 20.0796L44.6883 16.4841C45.0404 16.1913 45.2631 15.7717 45.3082 15.3159C45.3534 14.8602 45.2173 14.405 44.9294 14.0489C44.6416 13.6927 44.2251 13.4642 43.77 13.4127C43.315 13.3612 42.858 13.4909 42.4978 13.7738L40.9669 15.1219C40.8752 15.2072 40.7673 15.2734 40.6497 15.3163C40.532 15.3593 40.4069 15.3782 40.2818 15.372C40.1567 15.3658 40.0341 15.3346 39.9212 15.2803C39.8084 15.2259 39.7076 15.1495 39.6247 15.0555C39.5419 14.9615 39.4788 14.8519 39.439 14.7331C39.3993 14.6143 39.3838 14.4887 39.3934 14.3638C39.403 14.2389 39.4375 14.1172 39.4949 14.0059C39.5524 13.8946 39.6315 13.7959 39.7277 13.7156L41.2746 12.3528C41.2845 12.3439 41.2948 12.3354 41.3051 12.327C42.0515 11.724 43.0069 11.4423 43.961 11.5437C44.4335 11.594 44.8914 11.7368 45.3087 11.964C45.7259 12.1912 46.0943 12.4983 46.3929 12.8679C46.6914 13.2375 46.9143 13.6623 47.0487 14.118C47.1831 14.5737 47.2264 15.0514 47.1761 15.5239C47.1259 15.9963 46.9831 16.4542 46.7559 16.8715C46.5287 17.2888 46.2215 17.6572 45.852 17.9557C45.8409 17.9648 45.8297 17.9736 45.8182 17.9822L40.9031 21.5916C40.7423 21.7098 40.5478 21.7734 40.3481 21.773Z" fill="#0EE89A"/>
<path d="M40.3423 40.0741C40.0937 40.0741 39.8552 39.9754 39.6794 39.7996C39.5036 39.6237 39.4048 39.3853 39.4048 39.1366V4.12641C39.4048 2.88422 38.207 1.875 36.7344 1.875H17.0703C15.5975 1.875 14.3984 2.88492 14.3984 4.12641V19.3891C14.3984 19.6378 14.2997 19.8762 14.1239 20.0521C13.948 20.2279 13.7096 20.3266 13.4609 20.3266C13.2123 20.3266 12.9738 20.2279 12.798 20.0521C12.6222 19.8762 12.5234 19.6378 12.5234 19.3891V4.12641C12.5234 1.85109 14.5625 0 17.0703 0H36.7344C39.2408 0 41.2798 1.85156 41.2798 4.12641V39.1366C41.2798 39.3853 41.1811 39.6237 41.0053 39.7996C40.8294 39.9754 40.591 40.0741 40.3423 40.0741Z" fill="#0EE89A"/>
<path d="M36.7363 48.6005H16.4698C16.2212 48.6005 15.9827 48.5017 15.8069 48.3259C15.6311 48.1501 15.5323 47.9116 15.5323 47.663C15.5323 47.4143 15.6311 47.1759 15.8069 47.0001C15.9827 46.8242 16.2212 46.7255 16.4698 46.7255H36.7363C38.2088 46.7255 39.4067 45.7151 39.4067 44.4731V38.8298C39.4067 38.5812 39.5055 38.3427 39.6813 38.1669C39.8571 37.9911 40.0956 37.8923 40.3442 37.8923C40.5929 37.8923 40.8313 37.9911 41.0071 38.1669C41.1829 38.3427 41.2817 38.5812 41.2817 38.8298V44.4731C41.2817 46.7489 39.2427 48.6005 36.7363 48.6005ZM40.1959 6.92578H13.5312C13.2826 6.92578 13.0442 6.82701 12.8683 6.65119C12.6925 6.47538 12.5938 6.23692 12.5938 5.98828C12.5938 5.73964 12.6925 5.50118 12.8683 5.32537C13.0442 5.14955 13.2826 5.05078 13.5312 5.05078H40.1959C40.4445 5.05078 40.683 5.14955 40.8588 5.32537C41.0346 5.50118 41.1334 5.73964 41.1334 5.98828C41.1334 6.23692 41.0346 6.47538 40.8588 6.65119C40.683 6.82701 40.4445 6.92578 40.1959 6.92578Z" fill="#0EE89A"/>
<path d="M40.3464 43.2695H16.6797C16.431 43.2695 16.1926 43.1708 16.0168 42.9949C15.841 42.8191 15.7422 42.5807 15.7422 42.332C15.7422 42.0834 15.841 41.8449 16.0168 41.6691C16.1926 41.4933 16.431 41.3945 16.6797 41.3945H40.3464C40.595 41.3945 40.8335 41.4933 41.0093 41.6691C41.1851 41.8449 41.2839 42.0834 41.2839 42.332C41.2839 42.5807 41.1851 42.8191 41.0093 42.9949C40.8335 43.1708 40.595 43.2695 40.3464 43.2695Z" fill="#0EE89A"/>
</svg>
