<svg width="40" height="40" viewBox="0 0 40 40" fill="none" xmlns="http://www.w3.org/2000/svg">
<rect width="40" height="40" rx="5" fill="white"/>
<path d="M19.5246 33.9578L15.9461 27.7592L15.6387 27.2264L19.0347 20.8063L17.7259 18.332C16.7038 20.7138 15.7149 23.1704 14.7611 25.7059C14.6823 25.9163 14.6028 26.126 14.524 26.3371C13.4967 29.0993 12.511 31.9559 11.5703 34.9161L15.3507 27.7697L15.6582 28.3026L19.5246 34.9995L23.2946 28.4693L23.0066 27.9254L19.5239 33.9572L19.5246 33.9578Z" fill="#184B7C"/>
<path d="M21.9455 12.1101H22.5683C22.477 12.2612 22.378 12.4084 22.2712 12.5511C21.7683 13.2221 20.8517 13.428 20.1097 13.0358C20.0139 13.239 19.9188 13.4429 19.8237 13.6475C20.2921 14.6592 20.7533 15.68 21.2054 16.7106L23.6392 12.1107L23.651 12.0886C23.7448 11.9107 23.8555 11.7446 23.9793 11.5895C24.4731 10.9739 25.1865 10.5576 25.9832 10.4723C26.7799 10.387 27.5206 9.92052 27.9232 9.15897C28.5955 7.88863 28.06 6.30038 26.7213 5.70951C25.6001 5.2144 24.264 5.62286 23.6112 6.65998C23.2634 7.21242 23.1598 7.83977 23.2634 8.42478C23.4549 9.50554 23.3005 10.6085 22.8451 11.5889H16.6094C16.7038 11.7687 16.8107 11.942 16.9279 12.1101H21.9448H21.9455ZM23.9669 7.06584C24.479 6.09777 25.679 5.7284 26.647 6.24044C27.6151 6.75249 27.9845 7.95247 27.4724 8.92053C26.9682 9.87296 25.7988 10.2456 24.8392 9.76938C24.8236 9.76156 24.808 9.7544 24.7923 9.74593C24.7174 9.70619 24.6464 9.66189 24.5786 9.61433C23.7728 9.04887 23.4946 7.95898 23.9669 7.06584Z" fill="#184B7C"/>
<path d="M24.7431 25.949L33.0328 11.5902H24.6825C24.5118 11.7407 24.36 11.9159 24.231 12.1114H32.1299L24.5046 25.3183L24.1691 25.8994C23.0818 22.9998 21.9483 20.2044 20.7731 17.5048C20.3294 16.4853 19.8793 15.4794 19.4239 14.4866C19.2011 14.0006 18.9764 13.5172 18.751 13.0371C18.0096 13.4293 17.093 13.2241 16.5894 12.5524C16.4826 12.4097 16.3836 12.2625 16.2924 12.1114C16.1901 11.942 16.0976 11.7681 16.0148 11.5902C15.5595 10.6098 15.4051 9.50686 15.5966 8.4261C15.6865 7.91861 15.6201 7.37986 15.3745 6.8854C15.3367 6.80918 15.2969 6.73296 15.2487 6.66065C14.4442 5.45025 13.1673 5.47305 12.4436 5.63721C12.1243 5.70953 11.7875 5.67239 11.5015 5.51344C10.7374 5.08869 9.87682 4.95058 8.74654 5.01507V5.1623C9.32894 5.23006 9.88268 5.37728 10.3459 5.57663C10.8814 5.80659 11.1107 6.43329 10.8703 6.96423C10.5635 7.6424 10.5621 8.4502 10.9374 9.15964C11.1465 9.55507 11.4475 9.87037 11.7993 10.0945C12.125 10.3023 12.4944 10.4319 12.8774 10.473C13.6742 10.5583 14.3875 10.9739 14.8813 11.5902H6L14.1784 25.7561C14.2572 25.5457 14.336 25.3346 14.4155 25.1249L6.90227 12.1114H15.2214L18.0747 17.5048L19.4239 20.0552L23.3059 27.3939L23.5939 27.9378L27.2863 34.9175C26.3684 32.0264 25.4062 29.2355 24.4043 26.5333L24.7418 25.9483L24.7431 25.949ZM14.2833 9.615C14.2155 9.66256 14.1445 9.70686 14.0696 9.7466C14.054 9.75507 14.0383 9.76223 14.0227 9.77005C13.4253 10.0665 12.7471 10.0339 12.198 9.73748C11.8162 9.53162 11.497 9.19742 11.312 8.75769C10.9361 7.86519 11.2761 6.81244 12.1015 6.30561C13.0872 5.70041 14.3627 6.06001 14.895 7.06651C14.9256 7.12449 14.953 7.18312 14.9777 7.24305C15.3289 8.09907 15.037 9.08602 14.2839 9.615H14.2833ZM19.3685 17.9706C19.0493 17.9706 18.79 17.7113 18.79 17.3921C18.79 17.0729 19.0493 16.8136 19.3685 16.8136C19.6878 16.8136 19.947 17.0729 19.947 17.3921C19.947 17.7113 19.6878 17.9706 19.3685 17.9706Z" fill="#184B7C"/>
</svg>
