<svg width="54" height="51" viewBox="0 0 54 51" fill="none" xmlns="http://www.w3.org/2000/svg">
<path d="M52.1068 0.125H1.89844C1.03542 0.125 0.335938 0.824479 0.335938 1.6875V48.5625C0.335938 49.4255 1.03542 50.125 1.89844 50.125H52.1068C52.9698 50.125 53.6693 49.4255 53.6693 48.5625V1.6875C53.6693 0.824479 52.9698 0.125 52.1068 0.125ZM50.5443 3.25V12.625H3.46094V3.25H50.5443ZM3.46094 47V15.75H50.5443V47H3.46094Z" fill="#F35E22"/>
<path d="M19.5028 22.1875C19.5028 19.6028 17.3999 17.5 14.8153 17.5C12.2307 17.5 10.1278 19.6029 10.1278 22.1875C10.1278 24.7721 12.2307 26.875 14.8153 26.875C17.3999 26.875 19.5028 24.7721 19.5028 22.1875ZM14.8153 26.875C10.5075 26.875 7.00281 30.3797 7.00281 34.6875V40.9375C7.00281 41.8005 7.70229 42.5 8.56531 42.5H21.0653C21.9283 42.5 22.6278 41.8005 22.6278 40.9375V34.6875C22.6278 30.3797 19.1231 26.875 14.8153 26.875ZM10.125 7.5625C10.125 8.42552 9.425 9.125 8.5625 9.125C7.69948 9.125 7 8.42552 7 7.5625C7 6.69948 7.69948 6 8.5625 6C9.425 6 10.125 6.69948 10.125 7.5625ZM16.375 7.5625C16.375 8.42552 15.675 9.125 14.8125 9.125C13.9494 9.125 13.25 8.42552 13.25 7.5625C13.25 6.69948 13.9495 6 14.8125 6C15.675 6 16.375 6.69948 16.375 7.5625ZM22.625 7.5625C22.625 8.42552 21.925 9.125 21.0625 9.125C20.1994 9.125 19.5 8.42552 19.5 7.5625C19.5 6.69948 20.1994 6 21.0625 6C21.925 6 22.625 6.69948 22.625 7.5625ZM43.0445 9.125H46.1695C47.0325 9.125 47.732 8.42552 47.732 7.5625C47.732 6.69948 47.0325 6 46.1695 6H43.0445C42.1815 6 41.482 6.69948 41.482 7.5625C41.482 8.42552 42.1815 9.125 43.0445 9.125ZM33.5653 9.125H36.7945C37.6575 9.125 38.357 8.42552 38.357 7.5625C38.357 6.69948 37.6575 6 36.7945 6H33.5653C32.7023 6 32.0028 6.69948 32.0028 7.5625C32.0028 8.42552 32.7023 9.125 33.5653 9.125ZM46.1695 18.5H27.3153C26.4523 18.5 25.7528 19.1995 25.7528 20.0625V26.3125C25.7528 27.1755 26.4523 27.875 27.3153 27.875H46.1695C47.0325 27.875 47.732 27.1755 47.732 26.3125V20.0625C47.732 19.1995 47.0325 18.5 46.1695 18.5ZM46.1695 31H27.3153C26.4523 31 25.7528 31.6995 25.7528 32.5625C25.7528 33.4255 26.4523 34.125 27.3153 34.125H46.1695C47.0325 34.125 47.732 33.4255 47.732 32.5625C47.732 31.6995 47.0325 31 46.1695 31ZM46.1695 37.25H27.3153C26.4523 37.25 25.7528 37.9495 25.7528 38.8125C25.7528 39.6755 26.4523 40.375 27.3153 40.375H46.1695C47.0325 40.375 47.732 39.6755 47.732 38.8125C47.732 37.9495 47.0325 37.25 46.1695 37.25Z" fill="#F35E22"/>
</svg>
