<svg width="51" height="46" viewBox="0 0 51 46" fill="none" xmlns="http://www.w3.org/2000/svg">
<path d="M8.78624 20.6239C22.94 15.5918 28.1159 9.41851 29.9657 6.0578L28.2757 5.33164C27.819 5.13538 27.7654 4.48901 28.2202 4.23639L34.7224 0.624266C35.0723 0.429821 35.5107 0.618205 35.6105 1.00588L37.4657 8.20901C37.5954 8.71275 37.0896 9.11901 36.6327 8.92235L34.6006 8.04922C29.9956 13.8903 22.4688 20.5309 8.78624 20.6239ZM39.4271 14.3817H41.2515V38.5517C41.2515 38.8856 41.5237 39.1578 41.8576 39.1578H47.0591C47.3929 39.1578 47.6651 38.8856 47.6651 38.5517V14.3817H49.4895C50.101 14.3817 50.4426 13.6794 50.0652 13.1983L45.61 7.5179C45.0241 6.77103 43.8925 6.77103 43.3067 7.5179L38.8515 13.1983C38.474 13.6795 38.8157 14.3817 39.4271 14.3817ZM30.4845 19.1195C30.1507 19.1195 29.8785 19.3917 29.8785 19.7256V38.5518C29.8785 38.8857 30.1507 39.1579 30.4845 39.1579H35.686C36.0199 39.1579 36.2921 38.8857 36.2921 38.5518V19.7256C36.2921 19.3917 36.0199 19.1195 35.686 19.1195H30.4845ZM19.1116 23.8572C18.7778 23.8572 18.5055 24.1294 18.5055 24.4633V38.5518C18.5055 38.8857 18.7778 39.1579 19.1116 39.1579H24.3131C24.6469 39.1579 24.9192 38.8857 24.9192 38.5518V24.4633C24.9192 24.1295 24.6469 23.8572 24.3131 23.8572H19.1116ZM49.5423 42.8674H3.42321V3.41972C3.42321 2.70528 2.84402 2.12608 2.12957 2.12608C1.41513 2.12608 0.835938 2.70528 0.835938 3.41972V44.1609C0.835938 44.8754 1.41513 45.4546 2.12957 45.4546H49.5423C50.2567 45.4546 50.8359 44.8754 50.8359 44.1609C50.8359 43.4465 50.2567 42.8674 49.5423 42.8674ZM7.73877 39.1578H12.9403C13.2741 39.1578 13.5463 38.8856 13.5463 38.5517V29.2009C13.5463 28.8671 13.2741 28.5949 12.9403 28.5949H7.73877C7.40493 28.5949 7.1327 28.8671 7.1327 29.2009V38.5517C7.1327 38.8856 7.40493 39.1578 7.73877 39.1578Z" fill="#AE4AA2"/>
</svg>
