<svg width="50" height="50" viewBox="0 0 50 50" fill="none" xmlns="http://www.w3.org/2000/svg">
<path d="M42.0411 14.9164L40.3273 19.9508C40.2748 20.1052 40.1752 20.2393 40.0426 20.3343C39.91 20.4293 39.751 20.4804 39.5879 20.4805C39.4636 20.4805 39.3412 20.4509 39.2307 20.3941C39.1202 20.3373 39.0248 20.255 38.9525 20.154C38.8802 20.053 38.833 19.9361 38.8149 19.8132C38.7967 19.6903 38.8082 19.5649 38.8482 19.4473L39.8922 16.3806L13.3175 31.7233C13.2286 31.7747 13.1306 31.808 13.0288 31.8214C12.9271 31.8348 12.8237 31.8281 12.7246 31.8015C12.6255 31.7749 12.5326 31.7291 12.4512 31.6667C12.3698 31.6042 12.3016 31.5263 12.2503 31.4374C12.1467 31.258 12.1186 31.0447 12.1722 30.8446C12.2259 30.6445 12.3568 30.4738 12.5362 30.3702L39.1109 15.0273L35.933 14.3981C35.731 14.3566 35.5536 14.2369 35.4395 14.0652C35.3254 13.8934 35.2839 13.6835 35.3239 13.4812C35.364 13.2789 35.4824 13.1006 35.6533 12.9853C35.8242 12.8699 36.0338 12.8269 36.2364 12.8654L41.4532 13.8983C41.5624 13.9199 41.6658 13.9646 41.7563 14.0294C41.8468 14.0942 41.9225 14.1776 41.9782 14.274C42.0338 14.3704 42.0682 14.4776 42.0791 14.5884C42.09 14.6992 42.077 14.811 42.0411 14.9164ZM16.6039 38.9437V49.1719C16.6039 49.3791 16.5216 49.5778 16.3751 49.7243C16.2286 49.8708 16.0299 49.9531 15.8227 49.9531H9.83486C9.62766 49.9531 9.42895 49.8708 9.28244 49.7243C9.13592 49.5778 9.05361 49.3791 9.05361 49.1719V38.9437C9.05361 38.7365 9.13592 38.5377 9.28244 38.3912C9.42895 38.2447 9.62766 38.1624 9.83486 38.1624H15.8227C16.0299 38.1624 16.2286 38.2447 16.3751 38.3912C16.5216 38.5377 16.6039 38.7365 16.6039 38.9437ZM47.973 22.4997V49.1719C47.973 49.3791 47.8907 49.5778 47.7442 49.7243C47.5977 49.8708 47.399 49.9531 47.1918 49.9531H41.204C40.9968 49.9531 40.7981 49.8708 40.6516 49.7243C40.5051 49.5778 40.4228 49.3791 40.4228 49.1719V22.4997C40.4228 22.2925 40.5051 22.0938 40.6516 21.9473C40.7981 21.8008 40.9968 21.7185 41.204 21.7185H47.1918C47.399 21.7185 47.5977 21.8008 47.7442 21.9473C47.8907 22.0938 47.973 22.2925 47.973 22.4997ZM37.5166 27.9809V49.1719C37.5166 49.3791 37.4343 49.5778 37.2878 49.7243C37.1413 49.8708 36.9425 49.9531 36.7353 49.9531H30.7477C30.5405 49.9531 30.3417 49.8708 30.1952 49.7243C30.0487 49.5778 29.9664 49.3791 29.9664 49.1719V27.9809C29.9664 27.7737 30.0487 27.5749 30.1952 27.4284C30.3417 27.2819 30.5405 27.1996 30.7477 27.1996H36.7353C36.9425 27.1996 37.1413 27.2819 37.2878 27.4284C37.4343 27.5749 37.5166 27.7737 37.5166 27.9809ZM27.0603 33.4624V49.1719C27.0603 49.3791 26.9779 49.5778 26.8314 49.7243C26.6849 49.8708 26.4862 49.9531 26.279 49.9531H20.2912C20.084 49.9531 19.8853 49.8708 19.7388 49.7243C19.5923 49.5778 19.51 49.3791 19.51 49.1719V33.4624C19.51 33.2552 19.5923 33.0565 19.7388 32.91C19.8853 32.7635 20.084 32.6812 20.2912 32.6812H26.279C26.4862 32.6812 26.6849 32.7635 26.8314 32.91C26.9779 33.0565 27.0603 33.2552 27.0603 33.4624ZM11.3313 21.9434C10.4549 21.7109 9.61353 21.3622 8.82969 20.9063L7.94385 21.7922C7.79731 21.9387 7.5986 22.0209 7.39141 22.0209C7.18421 22.0209 6.9855 21.9387 6.83896 21.7922L4.2 19.1533C4.05351 19.0068 3.97121 18.8081 3.97121 18.6009C3.97121 18.3937 4.05351 18.195 4.2 18.0485L5.08574 17.1628C4.62996 16.3789 4.28122 15.5374 4.04883 14.6609H2.79687C2.58967 14.6609 2.39096 14.5786 2.24445 14.4321C2.09793 14.2856 2.01563 14.0869 2.01562 13.8797V10.1478C2.01562 9.94055 2.09793 9.74184 2.24445 9.59533C2.39096 9.44881 2.58967 9.3665 2.79687 9.3665H4.04883C4.28127 8.49008 4.63008 7.64874 5.08594 6.86494L4.1999 5.97891C4.12736 5.90635 4.06982 5.82022 4.03056 5.72543C3.9913 5.63064 3.97111 5.52904 3.97111 5.42644C3.97112 5.32385 3.99134 5.22225 4.03061 5.12747C4.06989 5.03268 4.12744 4.94656 4.2 4.87402L6.83887 2.23525C6.9114 2.1627 6.99751 2.10514 7.0923 2.06587C7.18708 2.0266 7.28867 2.00638 7.39126 2.00638C7.49385 2.00638 7.59544 2.0266 7.69022 2.06587C7.785 2.10514 7.87112 2.1627 7.94365 2.23525L8.82949 3.12119C9.61335 2.6654 10.4547 2.31663 11.3312 2.08418V0.832031C11.3312 0.624831 11.4135 0.426117 11.56 0.279604C11.7065 0.133091 11.9052 0.0507813 12.1124 0.0507812H15.8443C16.0515 0.0507813 16.2503 0.133091 16.3968 0.279604C16.5433 0.426117 16.6256 0.624831 16.6256 0.832031V2.08428C17.502 2.31663 18.3433 2.6654 19.1271 3.12129L20.0131 2.23525C20.1596 2.08878 20.3583 2.0065 20.5655 2.0065C20.7727 2.0065 20.9714 2.08878 21.118 2.23525L23.7567 4.87412C23.9032 5.02063 23.9855 5.21933 23.9855 5.42651C23.9855 5.6337 23.9032 5.8324 23.7567 5.97891L22.8708 6.86484C23.3266 7.64866 23.6753 8.48999 23.9077 9.36641H25.1599C25.3671 9.36641 25.5658 9.44872 25.7123 9.59523C25.8588 9.74174 25.9411 9.94046 25.9411 10.1477V13.8796C25.9411 14.0868 25.8588 14.2855 25.7123 14.432C25.5658 14.5785 25.3671 14.6608 25.1599 14.6608H23.9077C23.6753 15.5373 23.3265 16.3786 22.8707 17.1624L23.7567 18.0484C23.8293 18.121 23.8868 18.2071 23.9261 18.3019C23.9653 18.3967 23.9855 18.4983 23.9855 18.6009C23.9855 18.7035 23.9653 18.8051 23.926 18.8999C23.8868 18.9947 23.8292 19.0808 23.7566 19.1533L21.1178 21.7921C21.0452 21.8646 20.9591 21.9222 20.8643 21.9615C20.7696 22.0007 20.668 22.021 20.5654 22.021C20.4628 22.021 20.3612 22.0007 20.2664 21.9615C20.1716 21.9222 20.0855 21.8646 20.013 21.7921L19.1272 20.9062C18.3434 21.362 17.502 21.7108 16.6256 21.9433V23.1952C16.6256 23.4024 16.5433 23.6011 16.3968 23.7476C16.2503 23.8942 16.0515 23.9765 15.8443 23.9765H12.1124C11.9052 23.9765 11.7065 23.8942 11.56 23.7476C11.4135 23.6011 11.3312 23.4024 11.3312 23.1952L11.3313 21.9434ZM12.2653 20.5569C12.4425 20.5923 12.602 20.6879 12.7166 20.8276C12.8312 20.9673 12.8938 21.1424 12.8938 21.323V22.4141H15.0633V21.323C15.0633 21.1424 15.1259 20.9673 15.2405 20.8276C15.3551 20.6879 15.5145 20.5923 15.6917 20.5569C16.8051 20.3356 17.864 19.8967 18.8074 19.2653C18.9577 19.165 19.1381 19.1199 19.3179 19.1376C19.4978 19.1554 19.6659 19.2349 19.7937 19.3627L20.5657 20.1349L22.0998 18.6009L21.3275 17.8286C21.1998 17.7009 21.1203 17.5328 21.1025 17.353C21.0848 17.1732 21.1299 16.9928 21.2302 16.8426C21.8644 15.8921 22.2988 14.8438 22.5216 13.7269C22.5569 13.5496 22.6526 13.3902 22.7923 13.2756C22.932 13.161 23.1071 13.0983 23.2878 13.0983H24.3791V10.9289H23.2878C23.1071 10.9289 22.932 10.8663 22.7923 10.7517C22.6526 10.6371 22.5569 10.4776 22.5216 10.3004C22.3004 9.18696 21.8616 8.12816 21.2302 7.18477C21.1299 7.03448 21.0848 6.85409 21.1026 6.67429C21.1203 6.4945 21.1998 6.32641 21.3275 6.19863L22.0998 5.42637L20.5658 3.89238L19.7936 4.66465C19.6658 4.79242 19.4977 4.87196 19.3179 4.88973C19.1381 4.9075 18.9577 4.8624 18.8074 4.76211C17.857 4.12783 16.8087 3.69336 15.6918 3.47061C15.5146 3.43528 15.3551 3.33962 15.2405 3.19991C15.1259 3.0602 15.0633 2.88509 15.0633 2.70439V1.61328H12.8938V2.70449C12.8938 2.88518 12.8312 3.06029 12.7166 3.19999C12.602 3.33969 12.4425 3.43536 12.2653 3.4707C11.1519 3.69189 10.093 4.13079 9.14961 4.76221C8.99931 4.86252 8.81889 4.90764 8.63906 4.88987C8.45924 4.8721 8.29113 4.79254 8.16338 4.66475L7.39131 3.89248L5.85723 5.42647L6.62949 6.19873C6.75722 6.32648 6.83673 6.49456 6.85448 6.67434C6.87224 6.85412 6.82713 7.0345 6.72686 7.18477C6.09258 8.13535 5.65801 9.18369 5.43525 10.3006C5.39991 10.4778 5.30424 10.6372 5.16453 10.7518C5.02483 10.8664 4.84973 10.929 4.66904 10.929H3.57813V13.0984H4.66914C4.84982 13.0984 5.02492 13.161 5.16463 13.2756C5.30433 13.3902 5.40001 13.5497 5.43535 13.7269C5.65656 14.8404 6.09545 15.8993 6.72686 16.8428C6.82712 16.9931 6.87222 17.1735 6.85447 17.3532C6.83672 17.533 6.75721 17.7011 6.62949 17.8289L5.85742 18.601L7.39141 20.135L8.16348 19.3629C8.29124 19.2352 8.45933 19.1556 8.63912 19.1379C8.81891 19.1201 8.99931 19.1652 9.14961 19.2654C10.0931 19.8967 11.1519 20.3356 12.2653 20.5569ZM13.9784 18.6095C10.3415 18.6095 7.38271 15.6507 7.38271 12.0138C7.38271 8.37686 10.3415 5.41807 13.9784 5.41807C17.6153 5.41807 20.5741 8.37686 20.5741 12.0138C20.5741 15.6507 17.6153 18.6095 13.9784 18.6095Z" fill="#F35E22"/>
</svg>
