<svg width="59" height="60" viewBox="0 0 59 60" fill="none" xmlns="http://www.w3.org/2000/svg">
<path d="M44.2423 24.9461C36.1167 24.9461 29.5061 31.5567 29.5061 39.6823C29.5061 47.808 36.1167 54.4186 44.2423 54.4186C52.368 54.4186 58.9786 47.808 58.9786 39.6823C58.9786 31.5567 52.368 24.9461 44.2423 24.9461ZM44.2423 50.6686C38.1845 50.6686 33.256 45.7402 33.256 39.6823C33.256 33.6245 38.1845 28.6961 44.2423 28.6961C50.3002 28.6961 55.2286 33.6245 55.2286 39.6823C55.2286 45.7402 50.3002 50.6686 44.2423 50.6686ZM46.1173 33.337V39.6823C46.1173 40.2017 45.9019 40.6978 45.5224 41.0524L41.8169 44.5146C41.4701 44.8395 41.0125 45.0201 40.5372 45.0195C40.2802 45.0199 40.0258 44.9673 39.79 44.8649C39.5542 44.7626 39.3421 44.6127 39.1668 44.4247C38.4598 43.668 38.5002 42.4815 39.2568 41.7745L42.3673 38.8682V33.337C42.3673 32.3014 43.2069 31.462 44.2423 31.462C45.2778 31.462 46.1173 32.3014 46.1173 33.337ZM44.2423 56.2499H15.1339V46.8153C15.1339 45.7797 14.2944 44.9403 13.2589 44.9403H3.74998V3.74999H42.3673V21.3648C42.3673 22.4003 43.2069 23.2398 44.2423 23.2398C45.2778 23.2398 46.1173 22.4003 46.1173 21.3648V1.87499C46.1173 0.839528 45.2778 0 44.2423 0H1.87499C0.839528 0 0 0.839528 0 1.87499V46.8148C0 47.3143 0.199218 47.793 0.553474 48.145L11.9374 59.4552C12.2887 59.8042 12.7637 60 13.2589 60H44.2424C45.2779 60 46.1174 59.1606 46.1174 58.125C46.1174 57.0894 45.2778 56.2499 44.2423 56.2499ZM11.3839 53.6189L6.42314 48.6903H11.3839V53.6189ZM27.1464 37.4761C27.1464 38.5116 26.3069 39.3511 25.2714 39.3511H10.2673C9.23188 39.3511 8.39235 38.5116 8.39235 37.4761C8.39235 36.4405 9.23188 35.6011 10.2673 35.6011H25.2714C26.3069 35.6011 27.1464 36.4405 27.1464 37.4761ZM27.1464 29.0668C27.1464 30.1023 26.3069 30.9418 25.2714 30.9418H10.2673C9.23188 30.9418 8.39235 30.1023 8.39235 29.0668C8.39235 28.0314 9.23188 27.1918 10.2673 27.1918H25.2714C26.3069 27.1918 27.1464 28.0314 27.1464 29.0668ZM27.1464 45.8846C27.1464 46.9202 26.3069 47.7596 25.2714 47.7596H18.6527C17.6172 47.7596 16.7777 46.9202 16.7777 45.8846C16.7777 44.849 17.6172 44.0096 18.6527 44.0096H25.2714C26.3069 44.0096 27.1464 44.849 27.1464 45.8846ZM35.8506 22.5334H10.2673C9.23188 22.5334 8.39235 21.6939 8.39235 20.6584C8.39235 19.623 9.23188 18.7834 10.2673 18.7834H35.8506C36.886 18.7834 37.7256 19.623 37.7256 20.6584C37.7256 21.6939 36.886 22.5334 35.8506 22.5334ZM37.7256 12.2492C37.7256 13.2847 36.886 14.1242 35.8506 14.1242H10.2673C9.23188 14.1242 8.39235 13.2847 8.39235 12.2492C8.39235 11.2137 9.23188 10.3742 10.2673 10.3742H35.8506C36.886 10.3742 37.7256 11.2137 37.7256 12.2492Z" fill="#50E3AE"/>
</svg>
