<svg width="53" height="53" viewBox="0 0 53 53" fill="none" xmlns="http://www.w3.org/2000/svg">
<path d="M2.29688 39.7332L6.15841 41.0535L7.47861 37.1914" stroke="#52E1AD" stroke-width="1.95297" stroke-miterlimit="10" stroke-linecap="round" stroke-linejoin="round"/>
<path d="M6.17166 41.0564C3.23131 36.9564 1.5 31.9309 1.5 26.5002C1.5 12.693 12.691 1.5 26.4957 1.5C31.9254 1.5 36.95 3.23162 41.0493 6.1725M50.6939 13.2643L46.8324 11.944L45.5122 15.8061" stroke="#52E1AD" stroke-width="1.95297" stroke-miterlimit="10" stroke-linecap="round" stroke-linejoin="round"/>
<path d="M46.8308 11.9453C49.7711 16.0453 51.5024 21.0709 51.5024 26.5015C51.5024 40.3088 40.3115 51.5018 26.5067 51.5018C21.0771 51.5018 16.0524 49.7701 11.9531 46.8293" stroke="#52E1AD" stroke-width="1.95297" stroke-miterlimit="10" stroke-linecap="round" stroke-linejoin="round"/>
<path d="M43.852 30.0846V22.9065H39.1701C38.8912 21.9216 38.4976 20.9728 37.9975 20.0796L41.3095 16.7671L36.2347 11.6914L32.9228 15.004C32.0298 14.5038 31.0813 14.1102 30.0966 13.8312V9.14844H22.9197V13.8312C21.935 14.1101 20.9864 14.5038 20.0935 15.004L16.7816 11.6914L11.7068 16.7671L15.0187 20.0796C14.5186 20.9728 14.1251 21.9215 13.8462 22.9065H9.16406V30.0846H13.846C14.1249 31.0695 14.5184 32.0182 15.0185 32.9113L11.7066 36.2239L16.7814 41.2995L20.0933 37.987C20.9863 38.4872 21.9349 38.8808 22.9196 39.1598V43.8425H30.0965V39.1598C31.0812 38.8808 32.0298 38.4872 32.9227 37.987L36.2346 41.2995L41.3094 36.2239L37.9974 32.9113C38.4975 32.0182 38.8911 31.0695 39.17 30.0846H43.852Z" stroke="#52E1AD" stroke-width="1.95297" stroke-miterlimit="10" stroke-linecap="round" stroke-linejoin="round"/>
<path d="M26.4849 35.2738C31.3307 35.2738 35.2589 31.3449 35.2589 26.4982C35.2589 21.6516 31.3307 17.7227 26.4849 17.7227C21.6392 17.7227 17.7109 21.6516 17.7109 26.4982C17.7109 31.3449 21.6392 35.2738 26.4849 35.2738Z" fill="#52E1AD" stroke="#52E1AD" stroke-width="1.95297" stroke-miterlimit="10" stroke-linecap="round" stroke-linejoin="round"/>
<path d="M25.375 23.0156V28.5712H29.6952" stroke="white" stroke-width="1.95297" stroke-miterlimit="10" stroke-linecap="round" stroke-linejoin="round"/>
</svg>
