<svg width="50" height="50" viewBox="0 0 50 50" fill="none" xmlns="http://www.w3.org/2000/svg">
<path fill-rule="evenodd" clip-rule="evenodd" d="M30 7.5V6.25C30 4.5924 29.3415 3.00269 28.1694 1.83058C26.9973 0.65848 25.4076 0 23.75 0H6.25C4.5924 0 3.00269 0.65848 1.83058 1.83058C0.65848 3.00269 0 4.5924 0 6.25V43.75C0 45.4076 0.65848 46.9973 1.83058 48.1694C3.00269 49.3415 4.5924 50 6.25 50H23.75C25.4075 50 26.9975 49.34 28.17 48.17C29.3411 46.997 29.9992 45.4075 30 43.75V42.5C30 41.837 29.7366 41.2011 29.2678 40.7322C28.7989 40.2634 28.163 40 27.5 40C26.837 40 26.2011 40.2634 25.7322 40.7322C25.2634 41.2011 25 41.837 25 42.5V43.75C25.0007 43.9143 24.9688 44.0772 24.9062 44.2291C24.8436 44.3811 24.7516 44.5192 24.6354 44.6354C24.5192 44.7516 24.3811 44.8436 24.2291 44.9062C24.0772 44.9688 23.9143 45.0007 23.75 45H6.25C5.91848 45 5.60054 44.8683 5.36612 44.6339C5.1317 44.3995 5 44.0815 5 43.75V6.25C5 5.91848 5.1317 5.60054 5.36612 5.36612C5.60054 5.1317 5.91848 5 6.25 5H23.75C23.9144 4.999 24.0774 5.03066 24.2295 5.09312C24.3816 5.15559 24.5198 5.24763 24.6361 5.3639C24.7524 5.48017 24.8444 5.61836 24.9069 5.77047C24.9693 5.92258 25.001 6.08557 25 6.25V7.5C25 8.16304 25.2634 8.79893 25.7322 9.26777C26.2011 9.73661 26.837 10 27.5 10C28.163 10 28.7989 9.73661 29.2678 9.26777C29.7366 8.79893 30 8.16304 30 7.5ZM12.5 42.5H17.5C18.163 42.5 18.7989 42.2366 19.2678 41.7678C19.7366 41.2989 20 40.663 20 40C20 39.337 19.7366 38.7011 19.2678 38.2322C18.7989 37.7634 18.163 37.5 17.5 37.5H12.5C11.837 37.5 11.2011 37.7634 10.7322 38.2322C10.2634 38.7011 10 39.337 10 40C10 40.663 10.2634 41.2989 10.7322 41.7678C11.2011 42.2366 11.837 42.5 12.5 42.5ZM32.5 15.315V12.5C32.5 11.837 32.7634 11.2011 33.2322 10.7322C33.7011 10.2634 34.337 10 35 10C35.663 10 36.2989 10.2634 36.7678 10.7322C37.2366 11.2011 37.5 11.837 37.5 12.5V15.315C38.4175 15.5525 39.2825 15.915 40.0775 16.385L42.07 14.3925C42.5415 13.9371 43.173 13.6851 43.8285 13.6908C44.484 13.6965 45.111 13.9594 45.5745 14.423C46.0381 14.8865 46.301 15.5135 46.3067 16.169C46.3124 16.8245 46.0604 17.456 45.605 17.9275L43.615 19.92C44.085 20.7175 44.4475 21.5825 44.685 22.5H47.5C48.163 22.5 48.7989 22.7634 49.2678 23.2322C49.7366 23.7011 50 24.337 50 25C50 25.663 49.7366 26.2989 49.2678 26.7678C48.7989 27.2366 48.163 27.5 47.5 27.5H44.685C44.4475 28.4175 44.085 29.2825 43.615 30.0775L45.605 32.07C45.8371 32.3021 46.0212 32.5777 46.1469 32.8809C46.2725 33.1842 46.3371 33.5092 46.3371 33.8375C46.3371 34.1658 46.2725 34.4908 46.1469 34.7941C46.0212 35.0973 45.8371 35.3729 45.605 35.605C45.3729 35.8371 45.0973 36.0212 44.7941 36.1469C44.4908 36.2725 44.1658 36.3371 43.8375 36.3371C43.5092 36.3371 43.1842 36.2725 42.8809 36.1469C42.5777 36.0212 42.3021 35.8371 42.07 35.605L40.0775 33.615C39.2727 34.0907 38.4051 34.4509 37.5 34.685V37.5C37.5 38.163 37.2366 38.7989 36.7678 39.2678C36.2989 39.7366 35.663 40 35 40C34.337 40 33.7011 39.7366 33.2322 39.2678C32.7634 38.7989 32.5 38.163 32.5 37.5V34.685C31.5943 34.4505 30.7258 34.0903 29.92 33.615L27.9275 35.605C27.6954 35.8371 27.4198 36.0212 27.1166 36.1469C26.8133 36.2725 26.4883 36.3371 26.16 36.3371C25.8317 36.3371 25.5067 36.2725 25.2034 36.1469C24.9002 36.0212 24.6246 35.8371 24.3925 35.605C24.1604 35.3729 23.9763 35.0973 23.8507 34.7941C23.725 34.4908 23.6604 34.1658 23.6604 33.8375C23.6604 33.5092 23.725 33.1842 23.8507 32.8809C23.9763 32.5777 24.1604 32.3021 24.3925 32.07L26.385 30.0775C25.9093 29.2727 25.5491 28.4051 25.315 27.5H22.5C21.837 27.5 21.2011 27.2366 20.7322 26.7678C20.2634 26.2989 20 25.663 20 25C20 24.337 20.2634 23.7011 20.7322 23.2322C21.2011 22.7634 21.837 22.5 22.5 22.5H25.315C25.5525 21.5825 25.915 20.7175 26.385 19.92L24.3925 17.9275C23.9371 17.456 23.6851 16.8245 23.6908 16.169C23.6965 15.5135 23.9594 14.8865 24.423 14.423C24.8865 13.9594 25.5135 13.6965 26.169 13.6908C26.8245 13.6851 27.456 13.9371 27.9275 14.3925L29.92 16.385C30.7258 15.9097 31.5943 15.5495 32.5 15.315Z" fill="#04ADE3"/>
</svg>
