<svg width="50" height="50" viewBox="0 0 50 50" fill="none" xmlns="http://www.w3.org/2000/svg">
<path d="M39.2262 28.5307C37.1101 28.5307 35.0415 29.1582 33.2821 30.3338C31.5226 31.5095 30.1513 33.1804 29.3415 35.1354C28.5317 37.0904 28.3198 39.2417 28.7327 41.3171C29.1455 43.3925 30.1645 45.2989 31.6608 46.7952C33.1571 48.2915 35.0635 49.3105 37.1389 49.7233C39.2143 50.1361 41.3655 49.9242 43.3205 49.1144C45.2755 48.3047 46.9465 46.9333 48.1221 45.1739C49.2977 43.4144 49.9252 41.3459 49.9252 39.2298C49.9252 36.3922 48.798 33.6709 46.7916 31.6644C44.7851 29.6579 42.0637 28.5307 39.2262 28.5307ZM30.1676 28.2276C30.3482 28.0779 30.4974 27.894 30.6068 27.6866C30.7162 27.4791 30.7836 27.2521 30.8052 27.0185C30.8267 26.785 30.802 26.5495 30.7323 26.3255C30.6627 26.1015 30.5496 25.8935 30.3994 25.7133C29.6481 24.8316 28.6933 24.1461 27.6177 23.7161C28.7682 22.3062 29.3979 20.543 29.4009 18.7232C29.4089 17.4374 29.1079 16.1685 28.5231 15.0233C27.9383 13.8781 27.0868 12.8902 26.0405 12.1429C24.9941 11.3956 23.7834 10.9106 22.5105 10.7289C21.2375 10.5473 19.9395 10.6742 18.7259 11.0989C17.5122 11.5237 16.4184 12.2339 15.5366 13.1698C14.6548 14.1057 14.0108 15.2397 13.6588 16.4765C13.3069 17.7132 13.2573 19.0165 13.5143 20.2764C13.7713 21.5363 14.3272 22.716 15.1354 23.7161C13.8239 24.2508 12.7013 25.1638 11.9105 26.3388C11.1198 27.5138 10.6967 28.8976 10.6953 30.3139V32.0971C10.6953 32.57 10.8832 33.0236 11.2176 33.358C11.552 33.6924 12.0056 33.8803 12.4785 33.8803C12.9514 33.8803 13.405 33.6924 13.7394 33.358C14.0738 33.0236 14.2617 32.57 14.2617 32.0971V30.3139C14.2617 29.368 14.6374 28.4609 15.3062 27.7921C15.9751 27.1233 16.8822 26.7475 17.828 26.7475H24.9607C25.474 26.7428 25.982 26.8523 26.4477 27.0682C26.9134 27.2841 27.3253 27.601 27.6533 27.9958C27.803 28.1763 27.9869 28.3256 28.1943 28.435C28.4018 28.5444 28.6288 28.6118 28.8624 28.6333C29.0959 28.6548 29.3314 28.6301 29.5554 28.5605C29.7794 28.4909 29.9874 28.3777 30.1676 28.2276Z" fill="#0EE89A"/>
<path d="M40.6396 36.1807L38.3393 38.4988L37.8222 37.9638C37.4864 37.6281 37.031 37.4394 36.5561 37.4394C36.0812 37.4394 35.6258 37.6281 35.29 37.9638C34.9543 38.2996 34.7656 38.755 34.7656 39.2299C34.7656 39.7048 34.9543 40.1602 35.29 40.496L37.0732 42.2791C37.239 42.4463 37.4362 42.5789 37.6535 42.6695C37.8708 42.76 38.1039 42.8066 38.3393 42.8066C38.5747 42.8066 38.8077 42.76 39.025 42.6695C39.2423 42.5789 39.4396 42.4463 39.6053 42.2791L43.1717 38.7128C43.5075 38.377 43.6961 37.9216 43.6961 37.4467C43.6961 36.9719 43.5075 36.5164 43.1717 36.1807C42.8359 35.8449 42.3805 35.6562 41.9056 35.6562C41.4308 35.6562 40.9754 35.8449 40.6396 36.1807Z" fill="white"/>
<path d="M24.376 45.185C23.4112 45.6442 22.4162 46.0374 21.3981 46.3619C16.2509 44.8273 11.7359 41.6735 8.52346 37.3689C5.31107 33.0643 3.57265 27.8384 3.56636 22.4673V10.1634L21.3981 3.67259L39.2299 10.1634V22.4673C39.2388 22.592 39.2388 22.7171 39.2299 22.8418V23.1806C39.2299 23.6535 39.4178 24.107 39.7522 24.4415C40.0866 24.7759 40.5402 24.9637 41.0131 24.9637C41.486 24.9637 41.9396 24.7759 42.274 24.4415C42.6084 24.107 42.7963 23.6535 42.7963 23.1806V8.91513C42.7961 8.54867 42.6831 8.19115 42.4725 7.89122C42.2619 7.5913 41.964 7.36354 41.6194 7.23895L22.0044 0.106232C21.6126 -0.0354107 21.1836 -0.0354107 20.7919 0.106232L1.1769 7.23895C0.832262 7.36354 0.534385 7.5913 0.323802 7.89122C0.113219 8.19115 0.00015592 8.54867 0 8.91513V22.4673C0.00875731 28.7034 2.06048 34.765 5.84122 39.7244C9.62195 44.6838 14.9235 48.2679 20.9345 49.9282C21.2362 50.0239 21.5601 50.0239 21.8618 49.9282C23.2125 49.5698 24.5307 49.0986 25.8026 48.5195C26.0292 48.4344 26.2361 48.304 26.4107 48.1363C26.5853 47.9686 26.7239 47.7671 26.8181 47.5441C26.9123 47.3211 26.96 47.0812 26.9585 46.8391C26.957 46.5971 26.9062 46.3578 26.8093 46.136C26.7123 45.9142 26.5712 45.7145 26.3945 45.549C26.2179 45.3835 26.0093 45.2557 25.7817 45.1733C25.554 45.091 25.312 45.0559 25.0703 45.0702C24.8287 45.0845 24.5924 45.1478 24.376 45.2563V45.185Z" fill="#0EE89A"/>
</svg>
