<svg width="50" height="50" viewBox="0 0 50 50" fill="none" xmlns="http://www.w3.org/2000/svg">
<path d="M43.75 39.0625C43.75 38.6481 43.5854 38.2507 43.2924 37.9576C42.9993 37.6646 42.6019 37.5 42.1875 37.5H35.9375C35.5231 37.5 35.1257 37.6646 34.8326 37.9576C34.5396 38.2507 34.375 38.6481 34.375 39.0625V45.3125H29.6875V32.8125C29.6875 32.3981 29.5229 32.0007 29.2299 31.7076C28.9368 31.4146 28.5394 31.25 28.125 31.25H21.875C21.4606 31.25 21.0632 31.4146 20.7701 31.7076C20.4771 32.0007 20.3125 32.3981 20.3125 32.8125V45.3125H15.625V20.3125C15.625 19.8981 15.4604 19.5007 15.1674 19.2076C14.8743 18.9146 14.4769 18.75 14.0625 18.75H7.8125C7.3981 18.75 7.00067 18.9146 6.70765 19.2076C6.41462 19.5007 6.25 19.8981 6.25 20.3125V45.3125H1.5625V48.4375H48.4375V45.3125H43.75V39.0625ZM37.5 40.625H40.625V45.3125H37.5V40.625ZM23.4375 34.375H26.5625V45.3125H23.4375V34.375ZM9.375 21.875H12.5V45.3125H9.375V21.875Z" fill="#6A41BA"/>
<path d="M20.5637 21.0938C21.1376 23.7321 22.6671 26.0648 24.8578 27.643C27.0484 29.2213 29.7454 29.9335 32.4297 29.6426C35.114 29.3516 37.5957 28.0782 39.3974 26.0672C41.1991 24.0563 42.1933 21.45 42.1887 18.7501C42.1887 18.3357 42.024 17.9382 41.731 17.6452C41.438 17.3522 41.0406 17.1876 40.6262 17.1876H33.5949C33.3877 17.1876 33.189 17.1052 33.0425 16.9587C32.896 16.8122 32.8137 16.6135 32.8137 16.4063V9.37506C32.8137 8.96066 32.649 8.56323 32.356 8.2702C32.063 7.97718 31.6656 7.81256 31.2512 7.81256C29.6239 7.80729 28.0164 8.16831 26.5477 8.86886C25.079 9.5694 23.7867 10.5915 22.7668 11.8594C21.7293 13.1342 20.9925 14.6264 20.6111 16.2251C20.2297 17.8238 20.2135 19.488 20.5637 21.0938Z" fill="#6A41BA"/>
<path d="M39.8438 14.0625H46.875C47.2894 14.0625 47.6868 13.8979 47.9799 13.6049C48.2729 13.3118 48.4375 12.9144 48.4375 12.5C48.4375 9.59919 47.2852 6.8172 45.234 4.76602C43.1828 2.71484 40.4008 1.5625 37.5 1.5625C37.0856 1.5625 36.6882 1.72712 36.3951 2.02015C36.1021 2.31317 35.9375 2.7106 35.9375 3.125V10.1562C35.9375 11.1923 36.3491 12.1858 37.0816 12.9184C37.8142 13.6509 38.8077 14.0625 39.8438 14.0625ZM1.5625 1.5625H23.4375V4.6875H1.5625V1.5625ZM1.5625 7.8125H15.625V10.9375H1.5625V7.8125Z" fill="#6A41BA"/>
</svg>
