<svg width="55" height="56" viewBox="0 0 55 56" fill="none" xmlns="http://www.w3.org/2000/svg">
<path d="M53.444 31.7347L51.3593 31.0427C51.4905 30.0338 51.5557 29.0174 51.5544 28C51.5554 26.9796 51.4902 25.9603 51.3593 24.9484L53.444 24.2653C53.8908 24.1192 54.2613 23.8017 54.4742 23.3825C54.6871 22.9634 54.725 22.4769 54.5794 22.0298L52.9383 16.9734C52.8663 16.7504 52.7509 16.5438 52.5986 16.3657C52.4463 16.1875 52.2603 16.0413 52.0512 15.9355C51.8395 15.8256 51.6079 15.7596 51.3701 15.7413C51.1323 15.723 50.8933 15.7529 50.6673 15.829L48.6093 16.4677C47.6438 14.6777 46.4511 13.0199 45.0609 11.5355L46.3472 9.76129C46.4851 9.57275 46.5845 9.35881 46.6395 9.13178C46.6946 8.90474 46.7042 8.66906 46.668 8.43828C46.6317 8.20749 46.5502 7.98614 46.4282 7.78693C46.3062 7.58772 46.146 7.41457 45.9569 7.27742L41.6101 4.19032C41.2299 3.91452 40.7559 3.80074 40.2919 3.8739C39.8279 3.94707 39.4119 4.20123 39.1351 4.58065L37.8399 6.35484C35.9965 5.47536 34.0461 4.84016 32.0383 4.46532V2.27419C32.0383 1.80365 31.8514 1.35238 31.5187 1.01965C31.1859 0.686923 30.7347 0.5 30.2641 0.5H24.9415C24.471 0.5 24.0197 0.686923 23.687 1.01965C23.3543 1.35238 23.1673 1.80365 23.1673 2.27419V4.46532C21.1562 4.83822 19.2027 5.47349 17.3569 6.35484L16.0706 4.58065C15.7937 4.20123 15.3777 3.94707 14.9137 3.8739C14.4498 3.80074 13.9758 3.91452 13.5956 4.19032L9.28427 7.3129C9.09515 7.45005 8.93498 7.6232 8.81294 7.82241C8.69091 8.02162 8.60942 8.24298 8.57316 8.47376C8.53689 8.70455 8.54656 8.94022 8.60161 9.16726C8.65666 9.3943 8.75601 9.60823 8.89395 9.79677L10.1714 11.571C8.78133 13.0588 7.58873 14.7195 6.62298 16.5121L4.53831 15.829C4.31639 15.7572 4.08248 15.7298 3.84997 15.7484C3.61745 15.767 3.39089 15.8313 3.18326 15.9376C2.97562 16.0439 2.79098 16.1901 2.6399 16.3678C2.48883 16.5456 2.37428 16.7513 2.30282 16.9734L0.661692 22.0298C0.516167 22.4769 0.554009 22.9634 0.766908 23.3825C0.979807 23.8017 1.35036 24.1192 1.79718 24.2653L3.88185 24.9573C3.73873 25.9654 3.66168 26.9818 3.65121 28C3.65022 29.0204 3.71541 30.0397 3.84637 31.0516L1.76169 31.7347C1.31487 31.8808 0.944323 32.1983 0.731424 32.6175C0.518526 33.0366 0.480683 33.5231 0.626208 33.9702L2.26734 39.0266C2.33933 39.2496 2.45479 39.4562 2.60705 39.6343C2.75931 39.8125 2.94535 39.9587 3.15443 40.0645C3.36611 40.1744 3.59775 40.2404 3.83553 40.2587C4.0733 40.277 4.31232 40.2471 4.53831 40.171L6.59637 39.5323C7.56184 41.3223 8.7545 42.9801 10.1448 44.4645L8.85847 46.2387C8.72052 46.4273 8.62118 46.6412 8.56613 46.8682C8.51108 47.0953 8.50141 47.3309 8.53767 47.5617C8.57394 47.7925 8.65543 48.0139 8.77746 48.2131C8.89949 48.4123 9.05967 48.5854 9.24879 48.7226L13.5601 51.8452C13.7516 51.9855 13.9694 52.086 14.2005 52.1406C14.4316 52.1952 14.6713 52.2029 14.9054 52.1632C15.1395 52.1235 15.3633 52.0372 15.5634 51.9094C15.7635 51.7817 15.936 51.615 16.0706 51.4194L17.3657 49.6452C19.2092 50.5246 21.1595 51.1598 23.1673 51.5347V53.7258C23.1673 54.1964 23.3543 54.6476 23.687 54.9804C24.0197 55.3131 24.471 55.5 24.9415 55.5H30.2641C30.7347 55.5 31.1859 55.3131 31.5187 54.9804C31.8514 54.6476 32.0383 54.1964 32.0383 53.7258V51.5347C34.0464 51.161 35.9969 50.5258 37.8399 49.6452L39.1262 51.4194C39.4031 51.7988 39.8191 52.0529 40.283 52.1261C40.747 52.1993 41.221 52.0855 41.6012 51.8097L45.9125 48.6871C46.1016 48.5499 46.2618 48.3768 46.3838 48.1776C46.5059 47.9784 46.5874 47.757 46.6236 47.5262C46.6599 47.2955 46.6502 47.0598 46.5952 46.8327C46.5401 46.6057 46.4408 46.3918 46.3028 46.2032L45.0254 44.429C46.4154 42.9412 47.608 41.2805 48.5738 39.4879L50.6673 40.171C50.8893 40.2428 51.1232 40.2702 51.3557 40.2516C51.5882 40.233 51.8148 40.1687 52.0224 40.0624C52.23 39.9561 52.4147 39.8099 52.5657 39.6322C52.7168 39.4544 52.8314 39.2487 52.9028 39.0266L54.544 33.9702C54.6911 33.5278 54.6582 33.0452 54.4524 32.6269C54.2465 32.2085 53.8843 31.888 53.444 31.7347ZM51.244 38.4766L49.1593 37.8024C48.7605 37.6794 48.3311 37.7009 47.9465 37.8631C47.562 38.0254 47.247 38.318 47.0569 38.6895C46.1477 40.346 45.033 41.881 43.7391 43.2581C43.4624 43.5531 43.2948 43.9339 43.2642 44.3372C43.2335 44.7406 43.3416 45.1423 43.5706 45.4758L44.8569 47.25L40.5544 50.3726L39.2681 48.5984C39.0229 48.2622 38.6673 48.023 38.2635 47.9224C37.8598 47.8219 37.4335 47.8665 37.0593 48.0484C35.369 48.8668 33.58 49.4631 31.7367 49.8226C31.3234 49.8982 30.9503 50.118 30.6839 50.4429C30.4175 50.7678 30.275 51.1767 30.2819 51.5968V53.7258H24.9415V51.5347C24.9484 51.1146 24.8059 50.7057 24.5395 50.3808C24.2731 50.0559 23.9 49.8361 23.4867 49.7605C21.6288 49.4027 19.8249 48.8064 18.1198 47.9863C17.7475 47.8091 17.3252 47.7671 16.9253 47.8675C16.5255 47.9678 16.1731 48.2043 15.9286 48.5363L14.6335 50.3105L10.331 47.25L11.6173 45.4758C11.8601 45.1404 11.9779 44.7307 11.9504 44.3175C11.9228 43.9044 11.7517 43.5139 11.4665 43.2137C10.1726 41.8367 9.0579 40.3017 8.14879 38.6452C7.95866 38.2736 7.64364 37.981 7.25912 37.8188C6.87459 37.6565 6.44518 37.635 6.04637 37.7581L3.96169 38.4411L2.31169 33.4202L4.39637 32.7371C4.78921 32.6083 5.12474 32.3464 5.34501 31.9965C5.56528 31.6467 5.65647 31.2309 5.60282 30.821C5.36625 28.9478 5.36625 27.0522 5.60282 25.179C5.65647 24.7691 5.56528 24.3533 5.34501 24.0035C5.12474 23.6536 4.78921 23.3917 4.39637 23.2629L2.31169 22.5798L3.96169 17.5234L6.04637 18.2419C6.44518 18.365 6.87459 18.3435 7.25912 18.1812C7.64364 18.019 7.95866 17.7264 8.14879 17.3548C9.0579 15.6983 10.1726 14.1633 11.4665 12.7863C11.7543 12.4882 11.9288 12.0989 11.9595 11.6857C11.9903 11.2725 11.8755 10.8616 11.6351 10.5242L10.3488 8.75L14.6512 5.62742L15.9375 7.40161C16.1827 7.73776 16.5383 7.97701 16.9421 8.07755C17.3459 8.17809 17.7721 8.13351 18.1464 7.95161C19.8366 7.1332 21.6257 6.53685 23.469 6.17742C23.8823 6.10185 24.2553 5.88204 24.5218 5.55714C24.7882 5.23224 24.9306 4.82333 24.9238 4.40323V2.27419H30.2464V4.46532C30.2395 4.88543 30.382 5.29434 30.6484 5.61924C30.9148 5.94414 31.2879 6.16394 31.7012 6.23952C33.5439 6.60096 35.3327 7.19722 37.0238 8.01371C37.396 8.19088 37.8184 8.23289 38.2182 8.13252C38.6181 8.03215 38.9705 7.79568 39.2149 7.46371L40.5101 5.68952L44.8125 8.82097L43.5706 10.5242C43.3278 10.8596 43.21 11.2693 43.2375 11.6825C43.2651 12.0956 43.4362 12.4861 43.7214 12.7863C45.0215 14.1623 46.1422 15.6974 47.0569 17.3548C47.247 17.7264 47.562 18.019 47.9465 18.1812C48.3311 18.3435 48.7605 18.365 49.1593 18.2419L51.244 17.5589L52.894 22.6242L50.8093 23.3073C50.4164 23.4361 50.0809 23.698 49.8606 24.0478C49.6404 24.3977 49.5492 24.8135 49.6028 25.2234C49.8394 27.0966 49.8394 28.9921 49.6028 30.8653C49.5492 31.2752 49.6404 31.691 49.8606 32.0409C50.0809 32.3907 50.4164 32.6527 50.8093 32.7815L52.894 33.4645L51.244 38.4766Z" fill="#D5BB53"/>
<path d="M15.6848 16.0774C18.5211 13.2677 22.258 11.5492 26.2372 11.2246C30.2163 10.9001 34.1823 11.9903 37.4364 14.3032H34.9703V16.0774H40.3816C40.524 16.0773 40.6643 16.0429 40.7907 15.9772C40.917 15.9115 41.0257 15.8163 41.1074 15.6997C41.1892 15.5831 41.2417 15.4485 41.2605 15.3074C41.2793 15.1662 41.2639 15.0226 41.2155 14.8886L39.3703 9.79671L37.7026 10.4088L38.5897 12.9725C35.1143 10.4188 30.8605 9.15001 26.5541 9.38259C22.2476 9.61518 18.1553 11.3347 14.9752 14.2479C11.7951 17.1611 9.72423 21.0874 9.11595 25.357C8.50767 29.6266 9.39963 33.9751 11.6397 37.6604L13.1566 36.7733C11.1952 33.5401 10.3781 29.7412 10.8366 25.9875C11.2952 22.2338 13.0028 18.7433 15.6848 16.0774ZM42.0227 19.262C44.0035 22.5772 44.7858 26.4721 44.2387 30.295C43.6916 34.118 41.8482 37.6371 39.017 40.2636C36.1858 42.8901 32.5386 44.4647 28.6854 44.724C24.8322 44.9832 21.0069 43.9114 17.8493 41.6878H20.3066V39.9136H14.8953C14.7518 39.9132 14.6103 39.9475 14.483 40.0137C14.3557 40.08 14.2464 40.1761 14.1644 40.2938C14.0824 40.4116 14.0302 40.5475 14.0123 40.6899C13.9943 40.8322 14.0112 40.9768 14.0614 41.1112L15.9066 46.1943L17.5743 45.5911L16.634 43.0096C20.1088 45.5504 24.3563 46.8094 28.6543 46.5726C32.9524 46.3358 37.0359 44.6178 40.2105 41.7108C43.3852 38.8037 45.4552 34.8869 46.0685 30.6263C46.6819 26.3656 45.8009 22.024 43.5751 18.3395L42.0227 19.262Z" fill="#D5BB53"/>
<path d="M15.1797 29.773V34.2085C15.1797 34.4438 15.2731 34.6694 15.4395 34.8358C15.6059 35.0021 15.8315 35.0956 16.0668 35.0956H22.2765C22.2765 35.3308 22.3699 35.5565 22.5363 35.7228C22.7026 35.8892 22.9283 35.9827 23.1636 35.9827H32.0345C32.2698 35.9827 32.4954 35.8892 32.6618 35.7228C32.8282 35.5565 32.9216 35.3308 32.9216 35.0956H39.1313C39.3666 35.0956 39.5922 35.0021 39.7586 34.8358C39.9249 34.6694 40.0184 34.4438 40.0184 34.2085V29.773C40.0154 29.0203 39.7732 28.288 39.3267 27.6821C38.8802 27.0761 38.2526 26.6278 37.5345 26.402C38.0339 25.9985 38.3958 25.45 38.5706 24.8322C38.7453 24.2143 38.7242 23.5576 38.5102 22.9522C38.2961 22.3469 37.8997 21.8228 37.3755 21.4521C36.8512 21.0814 36.225 20.8824 35.5829 20.8824C34.9409 20.8824 34.3146 21.0814 33.7904 21.4521C33.2661 21.8228 32.8697 22.3469 32.6557 22.9522C32.4416 23.5576 32.4205 24.2143 32.5953 24.8322C32.77 25.45 33.1319 25.9985 33.6313 26.402C33.0751 26.5726 32.5694 26.8772 32.1587 27.2891C31.5712 26.4259 30.6979 25.7976 29.6926 25.5149C30.2969 25.0733 30.7462 24.4519 30.976 23.7395C31.2058 23.0272 31.2045 22.2604 30.9723 21.5488C30.74 20.8373 30.2886 20.2174 29.6828 19.7778C29.0769 19.3383 28.3476 19.1016 27.599 19.1016C26.8505 19.1016 26.1212 19.3383 25.5153 19.7778C24.9095 20.2174 24.4581 20.8373 24.2258 21.5488C23.9936 22.2604 23.9922 23.0272 24.2221 23.7395C24.4519 24.4519 24.9011 25.0733 25.5055 25.5149C24.5002 25.7976 23.6269 26.4259 23.0394 27.2891C22.6286 26.8772 22.1229 26.5726 21.5668 26.402C22.0661 25.9985 22.4281 25.45 22.6028 24.8322C22.7776 24.2143 22.7565 23.5576 22.5424 22.9522C22.3284 22.3469 21.932 21.8228 21.4077 21.4521C20.8835 21.0814 20.2572 20.8824 19.6152 20.8824C18.9731 20.8824 18.3469 21.0814 17.8226 21.4521C17.2984 21.8228 16.902 22.3469 16.6879 22.9522C16.4739 23.5576 16.4528 24.2143 16.6275 24.8322C16.8022 25.45 17.1642 25.9985 17.6636 26.402C16.9455 26.6278 16.3179 27.0761 15.8714 27.6821C15.4249 28.288 15.1827 29.0203 15.1797 29.773ZM27.599 20.902C27.9499 20.902 28.293 21.0061 28.5847 21.201C28.8765 21.396 29.1039 21.6731 29.2382 21.9973C29.3725 22.3215 29.4076 22.6782 29.3391 23.0223C29.2707 23.3665 29.1017 23.6826 28.8536 23.9308C28.6055 24.1789 28.2893 24.3479 27.9452 24.4163C27.601 24.4848 27.2443 24.4496 26.9201 24.3154C26.5959 24.1811 26.3188 23.9537 26.1239 23.6619C25.9289 23.3701 25.8248 23.0271 25.8248 22.6762C25.8248 22.2057 26.0118 21.7544 26.3445 21.4217C26.6772 21.0889 27.1285 20.902 27.599 20.902ZM24.0507 29.773C24.0507 29.0672 24.331 28.3903 24.8301 27.8912C25.3292 27.3921 26.0061 27.1117 26.7119 27.1117H28.4861C29.192 27.1117 29.8689 27.3921 30.368 27.8912C30.867 28.3903 31.1474 29.0672 31.1474 29.773V34.2085H24.0507V29.773Z" fill="#D5BB53"/>
</svg>
