<svg width="39" height="47" viewBox="0 0 39 47" fill="none" xmlns="http://www.w3.org/2000/svg">
<path fill-rule="evenodd" clip-rule="evenodd" d="M1.46484 4.96553H3.59844V40.4446C3.59844 42.006 4.86904 43.2767 6.43037 43.2767H33.096V45.4102C33.096 46.217 32.438 46.875 31.6312 46.875H1.46484C0.658008 46.875 0 46.217 0 45.4102V6.43037C9.76563e-05 5.62363 0.658106 4.96553 1.46484 4.96553ZM6.43047 0C5.62363 0 4.96563 0.658008 4.96563 1.46484V40.4446C4.96563 41.2515 5.62363 41.9095 6.43047 41.9095H36.5969C37.4037 41.9095 38.0617 41.2515 38.0617 40.4446V8.18174H32.712C31.1507 8.18174 29.88 6.91113 29.88 5.34971V0H6.43047ZM10.5273 9.26035H23.125C23.3063 9.26035 23.4802 9.18833 23.6084 9.06013C23.7366 8.93193 23.8086 8.75806 23.8086 8.57676C23.8086 8.39546 23.7366 8.22158 23.6084 8.09338C23.4802 7.96519 23.3063 7.89316 23.125 7.89316H10.5273C10.346 7.89316 10.1722 7.96519 10.044 8.09338C9.91577 8.22158 9.84375 8.39546 9.84375 8.57676C9.84375 8.75806 9.91577 8.93193 10.044 9.06013C10.1722 9.18833 10.346 9.26035 10.5273 9.26035ZM10.5273 12.5563H17.7051C17.8864 12.5563 18.0603 12.4842 18.1885 12.356C18.3167 12.2278 18.3887 12.054 18.3887 11.8727C18.3887 11.6914 18.3167 11.5175 18.1885 11.3893C18.0603 11.2611 17.8864 11.1891 17.7051 11.1891H10.5273C10.346 11.1891 10.1722 11.2611 10.044 11.3893C9.91577 11.5175 9.84375 11.6914 9.84375 11.8727C9.84375 12.054 9.91577 12.2278 10.044 12.356C10.1722 12.4842 10.346 12.5563 10.5273 12.5563ZM31.2471 5.3498C31.2471 6.15664 31.9051 6.81465 32.7119 6.81465H37.9347C37.8637 6.65908 37.7629 6.51582 37.6326 6.38555L31.6762 0.429101C31.5459 0.298828 31.4027 0.198047 31.2472 0.127051V5.3498H31.2471ZM11.0156 28.2522C10.8862 28.2525 10.7622 28.304 10.6706 28.3955C10.5791 28.4871 10.5276 28.6111 10.5273 28.7405V34.8741C10.5273 35.1431 10.7467 35.3624 11.0156 35.3624H13.467C13.7359 35.3624 13.9553 35.1431 13.9553 34.8741V28.7405C13.9553 28.4716 13.7359 28.2522 13.467 28.2522H11.0156ZM17.1972 25.159C17.0677 25.1592 16.9437 25.2108 16.8522 25.3023C16.7607 25.3938 16.7091 25.5178 16.7089 25.6473V34.8741C16.7089 35.1431 16.9282 35.3624 17.1972 35.3624H19.6485C19.9175 35.3624 20.1368 35.1431 20.1368 34.8741V25.6473C20.1368 25.3783 19.9175 25.159 19.6485 25.159H17.1972ZM23.3788 22.0656C23.2494 22.0659 23.1253 22.1174 23.0338 22.2089C22.9423 22.3004 22.8908 22.4245 22.8905 22.5539V34.874C22.8905 35.143 23.1099 35.3623 23.3788 35.3623H25.8302C26.0991 35.3623 26.3185 35.143 26.3185 34.874V22.5539C26.3185 22.285 26.0991 22.0656 25.8302 22.0656H23.3788ZM29.5605 18.9724C29.431 18.9726 29.307 19.0241 29.2155 19.1157C29.124 19.2072 29.0724 19.3312 29.0722 19.4606V34.874C29.0722 35.143 29.2915 35.3623 29.5605 35.3623H32.0118C32.2808 35.3623 32.5001 35.143 32.5001 34.874V19.4606C32.5001 19.1917 32.2808 18.9724 32.0118 18.9724H29.5605ZM25.651 13.7756L26.7089 13.5011C25.3058 15.6027 23.3438 17.4822 20.9642 18.9945C18.1437 20.7871 14.744 22.0604 10.9984 22.5759C10.8193 22.6 10.657 22.6942 10.5473 22.838C10.4377 22.9817 10.3896 23.1631 10.4137 23.3423C10.4378 23.5215 10.532 23.6837 10.6758 23.7934C10.8195 23.9031 11.0009 23.9511 11.1801 23.9271C15.1326 23.3831 18.7198 22.0395 21.6959 20.148C24.1382 18.5959 26.1739 16.6724 27.6688 14.5156L27.7212 15.3113C27.7447 15.6874 28.0688 15.9731 28.4448 15.9495C28.8209 15.9259 29.1066 15.602 29.083 15.2259L28.8937 12.364C28.8599 11.8532 28.3281 11.6729 27.844 11.7986L25.3093 12.4564C25.1352 12.5025 24.9864 12.6156 24.8954 12.7711C24.8045 12.9265 24.7787 13.1116 24.8239 13.286C24.8691 13.4603 24.9814 13.6097 25.1364 13.7015C25.2914 13.7932 25.4764 13.8199 25.651 13.7756Z" fill="#04ADE3"/>
</svg>
