<svg width="45" height="45" viewBox="0 0 45 45" fill="none" xmlns="http://www.w3.org/2000/svg">
<path fill-rule="evenodd" clip-rule="evenodd" d="M30.4337 21.8445V23.1555C30.4337 23.5301 30.135 23.8235 29.7666 23.8235H27.7901C25.5983 23.8235 23.8177 25.605 23.8177 27.794C23.8177 29.9872 25.5938 31.7646 27.7851 31.7646H38.3863C42.0372 31.7646 45 34.7317 45 38.3822C45 42.0357 42.0331 44.9998 38.381 44.9998H16.5398C16.1796 44.9998 15.8785 44.7007 15.8785 44.3318V43.0207C15.8785 42.6461 16.1745 42.3527 16.5398 42.3527H38.381C40.5723 42.3527 42.3536 40.573 42.3536 38.3822C42.3536 36.1928 40.5749 34.4116 38.3862 34.4116H27.785C24.1319 34.4116 21.1712 31.4489 21.1712 27.794C21.1712 24.1431 24.1366 21.1764 27.7901 21.1764H29.7666C30.1406 21.1765 30.4337 21.4755 30.4337 21.8445ZM10.0769 44.7195C9.84428 44.9013 9.55758 45 9.2624 45C8.96722 45 8.68052 44.9013 8.4479 44.7195C8.3207 44.6189 8.19509 44.5163 8.07112 44.4117C7.75111 44.1427 7.4369 43.8668 7.12872 43.5843C6.15909 42.6972 5.18998 41.7067 4.28247 40.6336C1.61837 37.4832 0 34.2708 0 31.1029C0 25.9862 4.14689 21.8382 9.26245 21.8382C14.378 21.8382 18.5249 25.9861 18.5249 31.1029C18.5249 34.2708 16.9065 37.4832 14.2423 40.6336C13.3348 41.7067 12.3657 42.6972 11.3961 43.5843C11.0879 43.8668 10.7737 44.1427 10.4537 44.4117C10.3297 44.5163 10.2041 44.6189 10.0769 44.7195ZM9.26245 35.7353C11.8202 35.7353 13.8937 33.6613 13.8937 31.1029C13.8937 28.5445 11.8202 26.4706 9.26245 26.4706C6.70467 26.4706 4.63122 28.5445 4.63122 31.1029C4.63122 33.6613 6.70467 35.7353 9.26245 35.7353ZM9.26245 33.0882C8.16628 33.0882 7.27766 32.1994 7.27766 31.1029C7.27766 30.0065 8.16628 29.1177 9.26245 29.1177C10.3586 29.1177 11.2472 30.0065 11.2472 31.1029C11.2472 32.1994 10.3586 33.0882 9.26245 33.0882ZM36.541 22.8813C36.3084 23.0631 36.0217 23.1618 35.7265 23.1618C35.4313 23.1618 35.1446 23.0631 34.912 22.8813C34.7848 22.7807 34.6592 22.6781 34.5352 22.5735C34.2152 22.3045 33.901 22.0286 33.5928 21.7461C32.6232 20.8589 31.6541 19.8685 30.7466 18.7954C28.0824 15.645 26.464 12.4326 26.464 9.2647C26.464 4.14799 30.6109 0 35.7265 0C40.842 0 44.9889 4.14799 44.9889 9.2647C44.9889 12.4326 43.3706 15.645 40.7064 18.7954C39.7989 19.8685 38.8298 20.8589 37.8601 21.7461C37.5519 22.0286 37.2377 22.3045 36.9177 22.5735C36.7938 22.6781 36.6682 22.7807 36.541 22.8813ZM35.7265 13.8971C38.2843 13.8971 40.3577 11.8231 40.3577 9.2647C40.3577 6.7063 38.2843 4.63235 35.7265 4.63235C33.1687 4.63235 31.0953 6.7063 31.0953 9.2647C31.0953 11.8231 33.1688 13.8971 35.7265 13.8971ZM35.7265 11.2501C34.6303 11.2501 33.7417 10.3612 33.7417 9.26479C33.7417 8.16836 34.6303 7.27952 35.7265 7.27952C36.8226 7.27952 37.7113 8.16836 37.7113 9.26479C37.7113 10.3612 36.8226 11.2501 35.7265 11.2501Z" fill="#F35E22"/>
</svg>
